<svg width="724" height="631" viewBox="0 0 724 631" fill="none" xmlns="http://www.w3.org/2000/svg">
<path d="M365.136 6.01789C364.274 5.52347 363.268 5.2536 362.236 5.23989C361.205 5.22616 360.19 5.46915 359.311 5.94041C300.415 37.1132 232.299 168.398 232.275 271.68C232.19 290.031 233.939 308.353 237.503 326.439C217.618 340.958 200.698 358.062 191.915 377.555C167.319 432.715 204.981 487.854 223.12 509.883C224.106 511.095 225.401 512.091 226.903 512.792C228.405 513.494 230.073 513.882 231.777 513.927C233.48 513.971 235.172 513.67 236.719 513.048C238.267 512.426 239.628 511.499 240.695 510.341L303.461 442.049C308.83 446.643 314.464 450.995 320.34 455.089C324.366 457.98 329.426 459.55 334.642 459.527L389.215 459.471C394.43 459.489 399.488 457.919 403.517 455.033C409.362 450.962 414.966 446.636 420.307 442.07L483.025 510.249C484.094 511.406 485.455 512.331 487.002 512.952C488.549 513.573 490.24 513.873 491.943 513.829C493.645 513.784 495.313 513.397 496.815 512.696C498.317 511.996 499.612 511.001 500.599 509.791C518.788 487.875 556.538 432.659 531.829 377.597C523.046 358.105 506.255 341.042 486.508 326.559C490.101 308.447 491.877 290.096 491.816 271.716C492.115 168.349 426.206 39.3957 365.136 6.01789ZM361.985 261.909C351.135 261.912 340.528 259.11 331.506 253.857C322.483 248.603 315.45 241.135 311.296 232.396C307.143 223.657 306.055 214.041 308.171 204.763C310.286 195.485 315.511 186.963 323.183 180.274C330.855 173.585 340.63 169.03 351.271 167.186C361.912 165.341 372.942 166.289 382.966 169.911C392.989 173.532 401.555 179.664 407.58 187.53C413.606 195.397 416.82 204.645 416.817 214.104C416.822 220.383 415.407 226.602 412.653 232.404C409.9 238.206 405.861 243.478 400.768 247.918C395.676 252.358 389.629 255.879 382.974 258.28C376.32 260.68 369.187 261.914 361.985 261.909Z" fill="white"/>
<path d="M407.096 478.301C407.105 486.029 401.731 493.729 394.661 502.472C378.727 522.07 345.171 522.387 329.204 502.451C323.16 494.885 316.737 482.493 316.737 478.266C316.747 477.351 316.426 476.457 315.82 475.71C315.214 474.963 314.354 474.401 313.361 474.105C312.368 473.808 311.293 473.792 310.289 474.059C309.285 474.325 308.403 474.861 307.768 475.589C298.341 486.099 293.219 499.056 293.215 512.398C293.232 545.536 361.985 608.607 361.985 608.607C361.985 608.607 430.779 545.501 430.763 512.363C430.79 499.006 425.658 486.03 416.195 475.526C413.116 472.321 406.991 474.152 407.096 478.301Z" fill="white"/>
</svg>
