<svg width="703" height="363" viewBox="0 0 703 363" fill="none" xmlns="http://www.w3.org/2000/svg">
<path d="M702.064 362.919H-1.06386C-1.31168 362.918 -1.54909 362.819 -1.72407 362.644C-1.89905 362.469 -1.99731 362.231 -1.99731 361.984C-1.99731 361.736 -1.89905 361.499 -1.72407 361.324C-1.54909 361.148 -1.31168 361.05 -1.06386 361.049H702.064C702.312 361.05 702.549 361.148 702.724 361.324C702.899 361.499 702.997 361.736 702.997 361.984C702.997 362.231 702.899 362.469 702.724 362.644C702.549 362.819 702.312 362.918 702.064 362.919Z" fill="#3F3D56"/>
<path d="M218.424 45.1104C221.232 45.1104 223.509 42.8368 223.509 40.0322C223.509 37.2277 221.232 34.9541 218.424 34.9541C215.616 34.9541 213.34 37.2277 213.34 40.0322C213.34 42.8368 215.616 45.1104 218.424 45.1104Z" fill="#F2F2F2"/>
<path d="M198.16 45.1104C200.968 45.1104 203.245 42.8368 203.245 40.0322C203.245 37.2277 200.968 34.9541 198.16 34.9541C195.352 34.9541 193.076 37.2277 193.076 40.0322C193.076 42.8368 195.352 45.1104 198.16 45.1104Z" fill="#F2F2F2"/>
<path d="M177.896 45.1104C180.705 45.1104 182.981 42.8368 182.981 40.0322C182.981 37.2277 180.705 34.9541 177.896 34.9541C175.088 34.9541 172.812 37.2277 172.812 40.0322C172.812 42.8368 175.088 45.1104 177.896 45.1104Z" fill="#F2F2F2"/>
<path d="M157.632 45.1104C160.441 45.1104 162.717 42.8368 162.717 40.0322C162.717 37.2277 160.441 34.9541 157.632 34.9541C154.824 34.9541 152.548 37.2277 152.548 40.0322C152.548 42.8368 154.824 45.1104 157.632 45.1104Z" fill="#F2F2F2"/>
<path d="M218.424 66.3125C221.232 66.3125 223.509 64.039 223.509 61.2344C223.509 58.4298 221.232 56.1562 218.424 56.1562C215.616 56.1562 213.34 58.4298 213.34 61.2344C213.34 64.039 215.616 66.3125 218.424 66.3125Z" fill="#F2F2F2"/>
<path d="M198.16 66.3125C200.968 66.3125 203.245 64.039 203.245 61.2344C203.245 58.4298 200.968 56.1562 198.16 56.1562C195.352 56.1562 193.076 58.4298 193.076 61.2344C193.076 64.039 195.352 66.3125 198.16 66.3125Z" fill="#F2F2F2"/>
<path d="M177.896 66.3125C180.705 66.3125 182.981 64.039 182.981 61.2344C182.981 58.4298 180.705 56.1562 177.896 56.1562C175.088 56.1562 172.812 58.4298 172.812 61.2344C172.812 64.039 175.088 66.3125 177.896 66.3125Z" fill="#F2F2F2"/>
<path d="M157.632 66.3125C160.441 66.3125 162.717 64.039 162.717 61.2344C162.717 58.4298 160.441 56.1562 157.632 56.1562C154.824 56.1562 152.548 58.4298 152.548 61.2344C152.548 64.039 154.824 66.3125 157.632 66.3125Z" fill="#F2F2F2"/>
<path d="M218.424 87.5142C221.232 87.5142 223.509 85.2406 223.509 82.4361C223.509 79.6315 221.232 77.3579 218.424 77.3579C215.616 77.3579 213.34 79.6315 213.34 82.4361C213.34 85.2406 215.616 87.5142 218.424 87.5142Z" fill="#F2F2F2"/>
<path d="M198.16 87.5142C200.968 87.5142 203.245 85.2406 203.245 82.4361C203.245 79.6315 200.968 77.3579 198.16 77.3579C195.352 77.3579 193.076 79.6315 193.076 82.4361C193.076 85.2406 195.352 87.5142 198.16 87.5142Z" fill="#F2F2F2"/>
<path d="M177.896 87.5142C180.705 87.5142 182.981 85.2406 182.981 82.4361C182.981 79.6315 180.705 77.3579 177.896 77.3579C175.088 77.3579 172.812 79.6315 172.812 82.4361C172.812 85.2406 175.088 87.5142 177.896 87.5142Z" fill="#F2F2F2"/>
<path d="M157.632 87.5142C160.441 87.5142 162.717 85.2406 162.717 82.4361C162.717 79.6315 160.441 77.3579 157.632 77.3579C154.824 77.3579 152.548 79.6315 152.548 82.4361C152.548 85.2406 154.824 87.5142 157.632 87.5142Z" fill="#F2F2F2"/>
<path d="M218.424 108.716C221.232 108.716 223.509 106.442 223.509 103.638C223.509 100.833 221.232 98.5596 218.424 98.5596C215.616 98.5596 213.34 100.833 213.34 103.638C213.34 106.442 215.616 108.716 218.424 108.716Z" fill="#F2F2F2"/>
<path d="M198.16 108.716C200.968 108.716 203.245 106.442 203.245 103.638C203.245 100.833 200.968 98.5596 198.16 98.5596C195.352 98.5596 193.076 100.833 193.076 103.638C193.076 106.442 195.352 108.716 198.16 108.716Z" fill="#F2F2F2"/>
<path d="M177.896 108.716C180.705 108.716 182.981 106.442 182.981 103.638C182.981 100.833 180.705 98.5596 177.896 98.5596C175.088 98.5596 172.812 100.833 172.812 103.638C172.812 106.442 175.088 108.716 177.896 108.716Z" fill="#F2F2F2"/>
<path d="M157.632 108.716C160.441 108.716 162.717 106.442 162.717 103.638C162.717 100.833 160.441 98.5596 157.632 98.5596C154.824 98.5596 152.548 100.833 152.548 103.638C152.548 106.442 154.824 108.716 157.632 108.716Z" fill="#F2F2F2"/>
<path d="M218.424 129.918C221.232 129.918 223.509 127.644 223.509 124.84C223.509 122.035 221.232 119.762 218.424 119.762C215.616 119.762 213.34 122.035 213.34 124.84C213.34 127.644 215.616 129.918 218.424 129.918Z" fill="#F2F2F2"/>
<path d="M198.16 129.918C200.968 129.918 203.245 127.644 203.245 124.84C203.245 122.035 200.968 119.762 198.16 119.762C195.352 119.762 193.076 122.035 193.076 124.84C193.076 127.644 195.352 129.918 198.16 129.918Z" fill="#F2F2F2"/>
<path d="M177.896 129.918C180.705 129.918 182.981 127.644 182.981 124.84C182.981 122.035 180.705 119.762 177.896 119.762C175.088 119.762 172.812 122.035 172.812 124.84C172.812 127.644 175.088 129.918 177.896 129.918Z" fill="#F2F2F2"/>
<path d="M157.632 129.918C160.441 129.918 162.717 127.644 162.717 124.84C162.717 122.035 160.441 119.762 157.632 119.762C154.824 119.762 152.548 122.035 152.548 124.84C152.548 127.644 154.824 129.918 157.632 129.918Z" fill="#F2F2F2"/>
<path d="M218.424 151.12C221.232 151.12 223.509 148.846 223.509 146.042C223.509 143.237 221.232 140.963 218.424 140.963C215.616 140.963 213.34 143.237 213.34 146.042C213.34 148.846 215.616 151.12 218.424 151.12Z" fill="#F2F2F2"/>
<path d="M198.16 151.12C200.968 151.12 203.245 148.846 203.245 146.042C203.245 143.237 200.968 140.963 198.16 140.963C195.352 140.963 193.076 143.237 193.076 146.042C193.076 148.846 195.352 151.12 198.16 151.12Z" fill="#F2F2F2"/>
<path d="M177.896 151.12C180.705 151.12 182.981 148.846 182.981 146.042C182.981 143.237 180.705 140.963 177.896 140.963C175.088 140.963 172.812 143.237 172.812 146.042C172.812 148.846 175.088 151.12 177.896 151.12Z" fill="#F2F2F2"/>
<path d="M157.632 151.12C160.441 151.12 162.717 148.846 162.717 146.042C162.717 143.237 160.441 140.963 157.632 140.963C154.824 140.963 152.548 143.237 152.548 146.042C152.548 148.846 154.824 151.12 157.632 151.12Z" fill="#F2F2F2"/>
<path d="M173.746 284.575V286.146C173.748 288.749 174.785 291.244 176.627 293.084C178.47 294.924 180.968 295.959 183.574 295.962H254.336C256.942 295.961 259.441 294.926 261.284 293.086C263.127 291.245 264.163 288.749 264.164 286.146V284.575C264.168 282.278 263.361 280.054 261.883 278.293C261.391 277.709 260.835 277.182 260.224 276.723C260.224 276.723 221.321 275.843 221.321 274.76H183.574C180.969 274.763 178.471 275.799 176.629 277.639C174.786 279.479 173.75 281.973 173.746 284.575Z" fill="#CCCCCC"/>
<path d="M224.634 295.572H214.413V361.533H224.634V295.572Z" fill="#CCCCCC"/>
<path d="M253.725 361.174C253.725 362.277 238.237 361.601 219.131 361.601C200.025 361.601 184.536 362.277 184.536 361.174C184.536 360.071 200.025 351.324 219.131 351.324C238.237 351.324 253.725 360.071 253.725 361.174Z" fill="#CCCCCC"/>
<path d="M239.673 283.243C240.411 282.254 240.922 281.116 241.172 279.908C241.422 278.7 241.403 277.453 241.118 276.253C240.833 275.053 240.287 273.93 239.52 272.964C238.753 271.997 237.784 271.21 236.679 270.658L215.016 196.935L198.52 205.004L225.002 274.934C224.196 276.848 224.122 278.991 224.793 280.956C225.464 282.922 226.834 284.573 228.642 285.597C230.45 286.621 232.572 286.947 234.605 286.513C236.638 286.08 238.441 284.916 239.673 283.243L239.673 283.243Z" fill="#A0616A"/>
<path d="M219.924 209.246L201.461 214.238C200.936 214.38 200.386 214.407 199.849 214.318C199.312 214.229 198.801 214.025 198.35 213.721C197.899 213.416 197.52 213.018 197.237 212.554C196.954 212.09 196.774 211.57 196.71 211.03L194.479 192.115C193.767 189.427 194.151 186.566 195.547 184.16C196.944 181.754 199.238 180 201.928 179.281C204.618 178.562 207.483 178.938 209.896 180.326C212.309 181.714 214.072 184.001 214.8 186.685L222.406 204.083C222.623 204.581 222.731 205.12 222.721 205.664C222.711 206.207 222.584 206.742 222.349 207.232C222.113 207.722 221.775 208.156 221.356 208.503C220.938 208.851 220.449 209.104 219.924 209.246H219.924Z" fill="white"/>
<path d="M244.498 353.443L254.137 353.442L258.724 328.475H244.497L244.498 353.443Z" fill="#A0616A"/>
<path d="M242.039 350.3L261.022 350.299H261.023C262.611 350.299 264.185 350.611 265.652 351.218C267.12 351.826 268.454 352.716 269.577 353.837C270.7 354.959 271.591 356.291 272.199 357.757C272.807 359.223 273.12 360.794 273.12 362.381V362.774L242.04 362.775L242.039 350.3Z" fill="#2F2E41"/>
<path d="M255.687 340.054C255.574 340.054 255.461 340.048 255.348 340.038L242.009 339.068C241.469 339.018 240.948 338.844 240.486 338.562C240.024 338.279 239.634 337.894 239.344 337.436C239.055 336.979 238.875 336.461 238.817 335.923C238.76 335.385 238.827 334.841 239.014 334.333L256.866 294.274C256.994 293.917 257.046 293.537 257.019 293.159C256.993 292.78 256.888 292.412 256.712 292.076C256.536 291.736 256.29 291.437 255.991 291.199C255.691 290.961 255.344 290.789 254.973 290.694C246.579 288.502 225.04 282.667 206.395 275.839C198.407 272.913 193.375 268.685 191.441 263.273C188.891 256.137 192.664 249.63 192.825 249.357L192.952 249.143L210.497 250.736L229.517 252.352L271.198 274.675C274.69 276.561 277.343 279.692 278.628 283.444C279.913 287.196 279.736 291.294 278.131 294.922L258.915 337.959C258.637 338.583 258.184 339.112 257.611 339.484C257.038 339.856 256.37 340.053 255.687 340.054Z" fill="#2F2E41"/>
<path d="M213.547 171.481C224.212 171.481 232.858 162.846 232.858 152.194C232.858 141.543 224.212 132.908 213.547 132.908C202.882 132.908 194.237 141.543 194.237 152.194C194.237 162.846 202.882 171.481 213.547 171.481Z" fill="#A0616A"/>
<path d="M238.994 352.658L248.634 352.657L253.22 327.689H238.993L238.994 352.658Z" fill="#A0616A"/>
<path d="M236.536 349.514L255.518 349.514H255.519C257.108 349.514 258.681 349.826 260.149 350.433C261.616 351.04 262.95 351.93 264.073 353.052C265.197 354.174 266.088 355.506 266.696 356.972C267.304 358.438 267.617 360.009 267.617 361.596V361.988L236.536 361.99L236.536 349.514Z" fill="#2F2E41"/>
<path d="M250.183 342.41C250.071 342.41 249.958 342.404 249.845 342.394L236.505 341.424C235.965 341.374 235.445 341.2 234.983 340.918C234.521 340.635 234.13 340.25 233.841 339.792C233.551 339.335 233.371 338.817 233.314 338.279C233.256 337.741 233.323 337.197 233.51 336.689L251.363 296.63C251.49 296.272 251.542 295.893 251.516 295.515C251.489 295.136 251.384 294.768 251.208 294.432C251.033 294.092 250.787 293.793 250.487 293.555C250.188 293.317 249.841 293.145 249.47 293.05C241.075 290.858 219.536 285.023 200.891 278.195C192.903 275.269 187.872 271.041 185.938 265.629C183.388 258.493 187.16 251.986 187.322 251.713L187.448 251.499L204.993 253.092L224.013 254.708L265.694 277.03C269.187 278.917 271.84 282.048 273.125 285.8C274.41 289.552 274.232 293.65 272.628 297.278L253.411 340.315C253.133 340.939 252.68 341.468 252.108 341.84C251.535 342.212 250.866 342.409 250.183 342.41Z" fill="#2F2E41"/>
<path d="M219.503 182.417L199.061 175.35C199.061 175.35 186.228 185.197 192.393 209.625C195.611 222.231 194.674 235.537 189.719 247.569C189.123 249.057 188.435 250.508 187.66 251.912C187.66 251.912 210.461 279.396 231.69 258.98L223.434 219.324C223.434 219.324 236.407 193.018 219.503 182.417Z" fill="#2F2E41"/>
<path d="M215.945 172.137C213.197 168.028 211.027 162.331 214.053 158.422C217.04 154.563 222.932 155.131 227.506 153.424C233.878 151.046 237.574 143.569 236.421 136.874C235.269 130.179 229.887 124.629 223.476 122.358C217.066 120.087 209.836 120.825 203.559 123.44C195.83 126.66 189.201 132.887 186.421 140.776C183.641 148.664 185.127 158.136 190.894 164.2C197.077 170.7 206.78 172.433 215.757 172.327" fill="#2F2E41"/>
<path d="M197.982 137.089C194.519 139.905 189.235 138.654 185.517 136.183C181.8 133.712 178.783 130.193 174.761 128.255C167.669 124.84 159.096 127.11 152.194 130.894C145.293 134.678 139.175 139.905 131.885 142.874C124.595 145.843 115.292 145.99 109.772 140.383C108.413 144.314 108.302 148.568 109.454 152.564C110.605 156.56 112.963 160.104 116.206 162.713C119.449 165.321 123.418 166.867 127.573 167.139C131.728 167.411 135.865 166.396 139.421 164.233C147.409 159.373 151.821 149.184 160.78 146.502C165.737 145.018 171.061 146.213 176.072 147.508C181.082 148.803 186.307 150.202 191.363 149.1C196.42 147.997 201.149 143.459 200.506 138.33L197.982 137.089Z" fill="#2F2E41"/>
<path d="M260.844 318.817C258.8 305.553 258.8 292.054 260.844 278.789C260.974 277.999 261.38 277.282 261.99 276.763C262.6 276.245 263.375 275.959 264.176 275.958H295.525C296.033 275.956 296.535 276.07 296.992 276.291C297.449 276.513 297.85 276.835 298.163 277.235C298.483 277.639 298.707 278.112 298.817 278.616C298.927 279.12 298.921 279.642 298.798 280.144C295.865 292.411 295.865 305.195 298.798 317.463C298.92 317.964 298.927 318.486 298.817 318.991C298.707 319.495 298.483 319.967 298.163 320.372C297.85 320.771 297.449 321.094 296.992 321.315C296.535 321.536 296.033 321.65 295.525 321.649H264.176C263.375 321.647 262.6 321.362 261.99 320.843C261.38 320.325 260.974 319.607 260.844 318.817Z" fill="white"/>
<path d="M285.878 295.335H269.427C268.802 295.335 268.202 295.086 267.76 294.645C267.318 294.203 267.069 293.604 267.068 292.98V292.059C267.069 291.435 267.318 290.836 267.76 290.394C268.202 289.953 268.802 289.704 269.427 289.704H285.878C286.503 289.704 287.103 289.953 287.545 290.394C287.987 290.836 288.236 291.435 288.237 292.059V292.98C288.236 293.604 287.987 294.203 287.545 294.645C287.103 295.086 286.503 295.335 285.878 295.335Z" fill="white"/>
<path d="M285.878 305.029H269.427C268.802 305.028 268.202 304.78 267.76 304.338C267.318 303.896 267.069 303.297 267.068 302.673V301.752C267.069 301.128 267.318 300.529 267.76 300.087C268.202 299.646 268.802 299.397 269.427 299.396H285.878C286.503 299.397 287.103 299.646 287.545 300.087C287.987 300.529 288.236 301.128 288.237 301.752V302.673C288.236 303.297 287.987 303.896 287.545 304.338C287.103 304.78 286.503 305.028 285.878 305.029Z" fill="white"/>
<path d="M269.088 279.71C269.555 278.568 269.766 277.338 269.706 276.107C269.645 274.875 269.315 273.671 268.739 272.581C268.162 271.49 267.354 270.539 266.369 269.795C265.385 269.05 264.249 268.53 263.042 268.271L223.623 202.291L209.669 214.22L252.804 275.326C252.503 277.38 252.967 279.473 254.109 281.209C255.25 282.944 256.989 284.201 258.996 284.742C261.003 285.282 263.139 285.069 265 284.141C266.86 283.214 268.314 281.637 269.088 279.71L269.088 279.71Z" fill="#A0616A"/>
<path d="M231.455 212.988L214.827 222.428C214.354 222.697 213.828 222.86 213.286 222.908C212.744 222.955 212.198 222.885 211.685 222.703C211.172 222.521 210.705 222.23 210.315 221.851C209.925 221.472 209.621 221.014 209.424 220.507L202.532 202.749C201.17 200.324 200.826 197.458 201.577 194.78C202.327 192.102 204.11 189.83 206.534 188.463C208.959 187.096 211.828 186.745 214.511 187.487C217.194 188.228 219.474 190.003 220.85 192.42L232.567 207.369C232.902 207.797 233.141 208.292 233.267 208.821C233.394 209.349 233.405 209.899 233.299 210.432C233.194 210.966 232.974 211.47 232.656 211.911C232.338 212.352 231.928 212.719 231.455 212.988Z" fill="#2F2E41"/>
<path d="M408.39 236.165H89.1778C87.8224 236.165 86.5225 236.702 85.5641 237.66C84.6057 238.617 84.0673 239.915 84.0673 241.269C84.0673 242.622 84.6057 243.921 85.5641 244.878C86.5225 245.835 87.8224 246.373 89.1778 246.373H98.2195V357.486C98.2195 358.84 98.758 360.138 99.7164 361.095C100.675 362.052 101.975 362.59 103.33 362.59C104.685 362.59 105.985 362.052 106.944 361.095C107.902 360.138 108.441 358.84 108.441 357.486V256.181L165.735 359.895C166.414 361.065 167.53 361.917 168.838 362.266C170.145 362.614 171.538 362.43 172.711 361.755C173.883 361.079 174.739 359.966 175.09 358.66C175.442 357.355 175.261 355.963 174.586 354.791L114.694 246.373H388.341V246.439L328.486 354.791C327.808 355.963 327.624 357.356 327.975 358.664C328.326 359.971 329.182 361.086 330.356 361.763C331.53 362.44 332.925 362.623 334.234 362.273C335.543 361.923 336.659 361.067 337.337 359.895L388.341 267.567V357.486C388.341 358.84 388.88 360.138 389.838 361.095C390.797 362.052 392.096 362.59 393.452 362.59C394.807 362.59 396.107 362.052 397.065 361.095C398.024 360.138 398.562 358.84 398.562 357.486V249.064L400.049 246.373H408.39C409.746 246.373 411.046 245.835 412.004 244.878C412.962 243.921 413.501 242.622 413.501 241.269C413.501 239.915 412.962 238.617 412.004 237.66C411.046 236.702 409.746 236.165 408.39 236.165Z" fill="#3F3D56"/>
<path d="M276.302 233.023H214.19C212.67 233.023 211.438 234.254 211.438 235.772C211.438 237.29 212.67 238.52 214.19 238.52H276.302C277.822 238.52 279.054 237.29 279.054 235.772C279.054 234.254 277.822 233.023 276.302 233.023Z" fill="#CCCCCC"/>
<path d="M317.973 238.52H247.998C246.643 238.519 245.344 237.98 244.386 237.023C243.428 236.067 242.889 234.769 242.887 233.416V194.939C242.889 193.585 243.428 192.288 244.386 191.331C245.344 190.374 246.643 189.836 247.998 189.834H317.973C319.328 189.836 320.627 190.374 321.585 191.331C322.543 192.288 323.082 193.585 323.084 194.939V233.416C323.082 234.769 322.543 236.067 321.585 237.023C320.627 237.98 319.328 238.519 317.973 238.52Z" fill="#CCCCCC"/>
<path d="M282.985 218.889C285.591 218.889 287.703 216.779 287.703 214.177C287.703 211.575 285.591 209.466 282.985 209.466C280.38 209.466 278.268 211.575 278.268 214.177C278.268 216.779 280.38 218.889 282.985 218.889Z" fill="white"/>
<path d="M371.375 143.718V5.90622C371.377 4.34034 372 2.8391 373.109 1.73185C374.217 0.624609 375.721 0.00178114 377.288 0H486.362C487.93 0.00178114 489.433 0.624609 490.542 1.73185C491.65 2.8391 492.274 4.34034 492.276 5.90622V143.718C492.274 145.284 491.65 146.785 490.542 147.892C489.433 149 487.93 149.622 486.362 149.624H377.288C375.721 149.622 374.217 149 373.109 147.892C372 146.785 371.377 145.284 371.375 143.718ZM377.288 1.3125C376.069 1.31386 374.9 1.79828 374.038 2.65948C373.175 3.52067 372.69 4.6883 372.689 5.90622V143.718C372.69 144.936 373.175 146.104 374.038 146.965C374.9 147.826 376.069 148.31 377.288 148.312H486.362C487.582 148.31 488.751 147.826 489.613 146.965C490.475 146.104 490.96 144.936 490.962 143.718V5.90622C490.96 4.6883 490.475 3.52067 489.613 2.65948C488.751 1.79828 487.582 1.31386 486.362 1.3125H377.288Z" fill="#E6E6E6"/>
<path d="M437.942 63.2898V34.9927C437.943 34.2097 438.254 33.4591 438.809 32.9054C439.363 32.3518 440.115 32.0404 440.899 32.0396H464.908C465.692 32.0404 466.443 32.3518 466.998 32.9054C467.552 33.4591 467.864 34.2097 467.865 34.9927V63.2898C467.864 64.0727 467.552 64.8233 466.998 65.377C466.443 65.9306 465.692 66.242 464.908 66.2429H440.899C440.115 66.242 439.363 65.9306 438.809 65.377C438.254 64.8233 437.943 64.0727 437.942 63.2898Z" fill="white"/>
<path d="M391.29 76.4143V48.1172C391.291 47.3342 391.602 46.5836 392.157 46.03C392.711 45.4763 393.463 45.1649 394.247 45.1641H418.256C419.04 45.1649 419.791 45.4763 420.346 46.03C420.9 46.5836 421.212 47.3342 421.213 48.1172V76.4143C421.212 77.1972 420.9 77.9479 420.346 78.5015C419.791 79.0551 419.04 79.3665 418.256 79.3674H394.247C393.463 79.3665 392.711 79.0551 392.157 78.5015C391.602 77.9479 391.291 77.1972 391.29 76.4143Z" fill="#CCCCCC"/>
<path d="M428.743 116.446V88.1484C428.744 87.3655 429.056 86.6149 429.61 86.0612C430.164 85.5076 430.916 85.1962 431.7 85.1953H455.709C456.493 85.1962 457.244 85.5076 457.799 86.0612C458.353 86.6149 458.665 87.3655 458.666 88.1484V116.446C458.665 117.229 458.353 117.979 457.799 118.533C457.244 119.086 456.493 119.398 455.709 119.399H431.7C430.916 119.398 430.164 119.086 429.61 118.533C429.056 117.979 428.744 117.229 428.743 116.446Z" fill="#FF6584"/>
<path d="M611.848 14.3599C614.656 14.3599 616.933 12.0863 616.933 9.28175C616.933 6.47717 614.656 4.20361 611.848 4.20361C609.04 4.20361 606.764 6.47717 606.764 9.28175C606.764 12.0863 609.04 14.3599 611.848 14.3599Z" fill="#F2F2F2"/>
<path d="M611.848 34.5987C614.656 34.5987 616.933 32.3251 616.933 29.5205C616.933 26.7159 614.656 24.4424 611.848 24.4424C609.04 24.4424 606.764 26.7159 606.764 29.5205C606.764 32.3251 609.04 34.5987 611.848 34.5987Z" fill="#F2F2F2"/>
<path d="M611.848 54.8369C614.656 54.8369 616.933 52.5634 616.933 49.7588C616.933 46.9542 614.656 44.6807 611.848 44.6807C609.04 44.6807 606.764 46.9542 606.764 49.7588C606.764 52.5634 609.04 54.8369 611.848 54.8369Z" fill="#F2F2F2"/>
<path d="M611.848 75.0757C614.656 75.0757 616.933 72.8022 616.933 69.9976C616.933 67.193 614.656 64.9194 611.848 64.9194C609.04 64.9194 606.764 67.193 606.764 69.9976C606.764 72.8022 609.04 75.0757 611.848 75.0757Z" fill="#F2F2F2"/>
<path d="M590.62 14.3599C593.428 14.3599 595.704 12.0863 595.704 9.28175C595.704 6.47717 593.428 4.20361 590.62 4.20361C587.812 4.20361 585.535 6.47717 585.535 9.28175C585.535 12.0863 587.812 14.3599 590.62 14.3599Z" fill="#F2F2F2"/>
<path d="M590.62 34.5987C593.428 34.5987 595.704 32.3251 595.704 29.5205C595.704 26.7159 593.428 24.4424 590.62 24.4424C587.812 24.4424 585.535 26.7159 585.535 29.5205C585.535 32.3251 587.812 34.5987 590.62 34.5987Z" fill="#F2F2F2"/>
<path d="M590.62 54.8369C593.428 54.8369 595.704 52.5634 595.704 49.7588C595.704 46.9542 593.428 44.6807 590.62 44.6807C587.812 44.6807 585.535 46.9542 585.535 49.7588C585.535 52.5634 587.812 54.8369 590.62 54.8369Z" fill="#F2F2F2"/>
<path d="M590.62 75.0757C593.428 75.0757 595.704 72.8022 595.704 69.9976C595.704 67.193 593.428 64.9194 590.62 64.9194C587.812 64.9194 585.535 67.193 585.535 69.9976C585.535 72.8022 587.812 75.0757 590.62 75.0757Z" fill="#F2F2F2"/>
<path d="M569.391 14.3599C572.199 14.3599 574.476 12.0863 574.476 9.28175C574.476 6.47717 572.199 4.20361 569.391 4.20361C566.583 4.20361 564.307 6.47717 564.307 9.28175C564.307 12.0863 566.583 14.3599 569.391 14.3599Z" fill="#F2F2F2"/>
<path d="M569.391 34.5987C572.199 34.5987 574.476 32.3251 574.476 29.5205C574.476 26.7159 572.199 24.4424 569.391 24.4424C566.583 24.4424 564.307 26.7159 564.307 29.5205C564.307 32.3251 566.583 34.5987 569.391 34.5987Z" fill="#F2F2F2"/>
<path d="M569.391 54.8369C572.199 54.8369 574.476 52.5634 574.476 49.7588C574.476 46.9542 572.199 44.6807 569.391 44.6807C566.583 44.6807 564.307 46.9542 564.307 49.7588C564.307 52.5634 566.583 54.8369 569.391 54.8369Z" fill="#F2F2F2"/>
<path d="M569.391 75.0757C572.199 75.0757 574.476 72.8022 574.476 69.9976C574.476 67.193 572.199 64.9194 569.391 64.9194C566.583 64.9194 564.307 67.193 564.307 69.9976C564.307 72.8022 566.583 75.0757 569.391 75.0757Z" fill="#F2F2F2"/>
<path d="M548.163 14.3599C550.971 14.3599 553.247 12.0863 553.247 9.28175C553.247 6.47717 550.971 4.20361 548.163 4.20361C545.355 4.20361 543.078 6.47717 543.078 9.28175C543.078 12.0863 545.355 14.3599 548.163 14.3599Z" fill="#F2F2F2"/>
<path d="M548.163 34.5987C550.971 34.5987 553.247 32.3251 553.247 29.5205C553.247 26.7159 550.971 24.4424 548.163 24.4424C545.355 24.4424 543.078 26.7159 543.078 29.5205C543.078 32.3251 545.355 34.5987 548.163 34.5987Z" fill="#F2F2F2"/>
<path d="M548.163 54.8369C550.971 54.8369 553.247 52.5634 553.247 49.7588C553.247 46.9542 550.971 44.6807 548.163 44.6807C545.355 44.6807 543.078 46.9542 543.078 49.7588C543.078 52.5634 545.355 54.8369 548.163 54.8369Z" fill="#F2F2F2"/>
<path d="M548.163 75.0757C550.971 75.0757 553.247 72.8022 553.247 69.9976C553.247 67.193 550.971 64.9194 548.163 64.9194C545.355 64.9194 543.078 67.193 543.078 69.9976C543.078 72.8022 545.355 75.0757 548.163 75.0757Z" fill="#F2F2F2"/>
<path d="M526.935 14.3599C529.743 14.3599 532.019 12.0863 532.019 9.28175C532.019 6.47717 529.743 4.20361 526.935 4.20361C524.126 4.20361 521.85 6.47717 521.85 9.28175C521.85 12.0863 524.126 14.3599 526.935 14.3599Z" fill="#F2F2F2"/>
<path d="M526.935 34.5987C529.743 34.5987 532.019 32.3251 532.019 29.5205C532.019 26.7159 529.743 24.4424 526.935 24.4424C524.126 24.4424 521.85 26.7159 521.85 29.5205C521.85 32.3251 524.126 34.5987 526.935 34.5987Z" fill="#F2F2F2"/>
<path d="M526.935 54.8369C529.743 54.8369 532.019 52.5634 532.019 49.7588C532.019 46.9542 529.743 44.6807 526.935 44.6807C524.126 44.6807 521.85 46.9542 521.85 49.7588C521.85 52.5634 524.126 54.8369 526.935 54.8369Z" fill="#F2F2F2"/>
<path d="M526.935 75.0757C529.743 75.0757 532.019 72.8022 532.019 69.9976C532.019 67.193 529.743 64.9194 526.935 64.9194C524.126 64.9194 521.85 67.193 521.85 69.9976C521.85 72.8022 524.126 75.0757 526.935 75.0757Z" fill="#F2F2F2"/>
<path d="M505.706 14.3599C508.514 14.3599 510.791 12.0863 510.791 9.28175C510.791 6.47717 508.514 4.20361 505.706 4.20361C502.898 4.20361 500.622 6.47717 500.622 9.28175C500.622 12.0863 502.898 14.3599 505.706 14.3599Z" fill="#F2F2F2"/>
<path d="M505.706 34.5987C508.514 34.5987 510.791 32.3251 510.791 29.5205C510.791 26.7159 508.514 24.4424 505.706 24.4424C502.898 24.4424 500.622 26.7159 500.622 29.5205C500.622 32.3251 502.898 34.5987 505.706 34.5987Z" fill="#F2F2F2"/>
<path d="M505.706 54.8369C508.514 54.8369 510.791 52.5634 510.791 49.7588C510.791 46.9542 508.514 44.6807 505.706 44.6807C502.898 44.6807 500.622 46.9542 500.622 49.7588C500.622 52.5634 502.898 54.8369 505.706 54.8369Z" fill="#F2F2F2"/>
<path d="M505.706 75.0757C508.514 75.0757 510.791 72.8022 510.791 69.9976C510.791 67.193 508.514 64.9194 505.706 64.9194C502.898 64.9194 500.622 67.193 500.622 69.9976C500.622 72.8022 502.898 75.0757 505.706 75.0757Z" fill="#F2F2F2"/>
<path d="M526.19 189.444C525.773 188.3 525.603 187.082 525.69 185.867C525.778 184.653 526.121 183.472 526.698 182.399C527.274 181.327 528.071 180.388 529.036 179.645C530.001 178.902 531.113 178.371 532.298 178.086C532.673 177.998 533.054 177.936 533.439 177.901L552.546 144.45L547.721 136.171L559.731 126.917L568.92 139.664C570.016 141.196 570.588 143.04 570.551 144.923C570.514 146.805 569.871 148.626 568.716 150.114L542.483 183.655C542.578 183.922 542.66 184.193 542.727 184.468C543.012 185.652 543.043 186.882 542.818 188.078C542.593 189.275 542.118 190.41 541.423 191.41C540.728 192.41 539.829 193.253 538.786 193.882C537.743 194.511 536.578 194.913 535.368 195.061C535.017 195.105 534.663 195.127 534.309 195.127C532.537 195.121 530.809 194.574 529.357 193.558C527.906 192.542 526.801 191.106 526.19 189.444Z" fill="#FFB8B8"/>
<path d="M488.911 354.061L479.272 354.06L474.687 316.927L488.913 316.928L488.911 354.061Z" fill="#FFB8B8"/>
<path d="M472.387 351.31H490.977V363H460.682C460.682 361.464 460.985 359.944 461.573 358.526C462.161 357.108 463.024 355.819 464.11 354.733C465.197 353.648 466.488 352.787 467.908 352.199C469.328 351.612 470.85 351.31 472.387 351.31Z" fill="#2F2E41"/>
<path d="M568.321 354.061L558.682 354.06L554.096 316.927L568.323 316.928L568.321 354.061Z" fill="#FFB8B8"/>
<path d="M551.797 351.31H570.387V363H540.092C540.092 361.464 540.395 359.944 540.983 358.526C541.571 357.108 542.434 355.819 543.52 354.733C544.607 353.648 545.898 352.787 547.318 352.199C548.738 351.612 550.26 351.31 551.797 351.31Z" fill="#2F2E41"/>
<path d="M562.405 128.726L540.764 136.939L535.481 122.281C534.779 120.335 534.789 118.203 535.509 116.263C536.228 114.324 537.611 112.7 539.413 111.68C541.236 110.649 543.368 110.302 545.425 110.703C547.481 111.104 549.326 112.226 550.627 113.867L562.405 128.726Z" fill="white"/>
<path d="M489.743 323.986L471.593 319.852C470.628 319.63 469.783 319.052 469.227 318.234C468.671 317.415 468.445 316.417 468.596 315.439C475.879 269.338 482.886 242.34 500.942 208.054C501.194 207.415 504.014 194.44 505.854 185.843C505.833 184.896 506.157 183.974 506.767 183.248C507.376 182.522 508.229 182.042 509.167 181.898L543.01 176.696C543.521 176.519 544.059 176.438 544.599 176.457L544.938 176.521L544.933 176.854C544.929 177.197 544.587 177.25 544.458 177.27L544.008 177.339C544.521 177.577 544.993 177.897 545.404 178.286C560.232 196.099 567.943 254.487 577.736 318.991C577.791 319.515 577.727 320.044 577.549 320.54C577.372 321.035 577.086 321.485 576.711 321.856C576.357 322.242 575.928 322.553 575.45 322.769C574.971 322.985 574.454 323.102 573.93 323.112L552.307 323.639C551.357 323.66 550.432 323.336 549.704 322.726C548.975 322.117 548.494 321.264 548.348 320.326L533.784 236.266C533.684 235.609 533.376 235.002 532.906 234.532C532.436 234.062 531.829 233.754 531.171 233.653C530.514 233.551 529.841 233.662 529.252 233.969C528.662 234.276 528.185 234.763 527.892 235.359C516.142 259.257 505.184 279.925 494.393 321.16C494.179 321.996 493.692 322.737 493.01 323.267C492.328 323.797 491.489 324.085 490.625 324.086C490.328 324.086 490.032 324.052 489.743 323.986Z" fill="#2F2E41"/>
<path d="M507.361 186.803C506.905 186.481 506.524 186.066 506.241 185.586C505.959 185.105 505.782 184.57 505.723 184.016C502.951 158.174 504.881 137.95 511.624 122.189C512.812 119.471 514.601 117.057 516.857 115.128C519.113 113.2 521.777 111.807 524.649 111.055L542.143 110.173L542.233 110.217C546.181 112.148 549.4 115.298 551.414 119.2C553.428 123.102 554.129 127.549 553.413 131.88C547.787 146.693 543.075 162.115 546.668 174.556C546.819 175.076 546.863 175.621 546.798 176.159C546.732 176.696 546.559 177.215 546.288 177.684C546.025 178.137 545.672 178.532 545.251 178.844C544.83 179.156 544.349 179.378 543.838 179.497L510.519 187.413C509.979 187.541 509.418 187.553 508.874 187.448C508.329 187.343 507.813 187.123 507.361 186.803Z" fill="white"/>
<path d="M499.83 149.718L466.278 123.281C466.011 123.375 465.739 123.455 465.464 123.521C464.279 123.798 463.05 123.823 461.856 123.594C460.661 123.365 459.528 122.888 458.531 122.193C457.526 121.498 456.682 120.597 456.055 119.549C455.428 118.502 455.032 117.333 454.893 116.12C454.668 114.182 455.106 112.225 456.134 110.566C457.163 108.907 458.723 107.644 460.561 106.981C461.708 106.571 462.929 106.406 464.144 106.499C465.36 106.593 466.541 106.941 467.612 107.522C468.683 108.103 469.619 108.904 470.358 109.871C471.098 110.839 471.625 111.951 471.904 113.136C471.99 113.511 472.05 113.892 472.084 114.276L505.484 133.521L513.796 128.741L523.004 140.781L510.098 149.968C508.588 151.034 506.773 151.586 504.923 151.541C503.073 151.496 501.287 150.856 499.83 149.718H499.83Z" fill="#FFB8B8"/>
<path d="M527.098 144.53L507.954 131.528L516.951 118.802C518.145 117.112 519.9 115.898 521.904 115.375C523.908 114.852 526.032 115.054 527.902 115.944C529.793 116.844 531.3 118.39 532.15 120.303C533 122.216 533.137 124.369 532.536 126.374L527.098 144.53Z" fill="white"/>
<path d="M536.305 103.647C546.97 103.647 555.616 95.0125 555.616 84.3608C555.616 73.7091 546.97 65.0742 536.305 65.0742C525.64 65.0742 516.994 73.7091 516.994 84.3608C516.994 95.0125 525.64 103.647 536.305 103.647Z" fill="#FFB8B8"/>
<path d="M529.225 81.4882C524.262 84.8808 517.745 88.3683 512.675 84.7554C509.347 82.3831 508.298 77.9901 509.648 74.1349C512.075 67.2023 518.744 64.1502 525.121 61.8107C533.412 58.7694 542.439 56.3499 550.997 58.528C559.556 60.706 567.12 68.982 565.575 77.6669C564.332 84.6511 557.736 90.4625 558.672 97.4941C559.615 104.571 567.583 108.296 574.618 109.561C581.653 110.826 589.526 111.232 594.582 116.279C601.031 122.717 599.421 134.224 593.352 141.022C587.283 147.819 578.125 150.9 569.251 152.995C557.493 155.77 544.776 157.229 533.609 152.623C522.442 148.017 513.752 135.619 516.987 123.993C518.353 119.082 521.572 114.932 524.683 110.891C527.794 106.851 530.944 102.626 532.13 97.6685C533.119 93.5375 532.387 88.7412 529.644 85.6424C529.146 85.1001 528.832 84.4137 528.748 83.682C528.664 82.9503 528.814 82.2108 529.177 81.5698L529.225 81.4882Z" fill="#2F2E41"/>
</svg>
