<svg xmlns="http://www.w3.org/2000/svg" width="243" height="241" fill="none" viewBox="0 0 243 241"><path fill="#1B4164" d="M0.149902 150.849C8.3147 150.456 15.2234 147.293 20.8759 141.359C26.5285 135.426 29.3548 128.373 29.3548 120.2C29.3548 128.373 32.181 135.426 37.8336 141.359C43.4862 147.293 50.3948 150.456 58.5596 150.849C50.3948 151.242 43.4862 154.405 37.8336 160.338C32.181 166.271 29.3548 173.324 29.3548 181.497C29.3548 173.324 26.5285 166.271 20.8759 160.338C15.2234 154.405 8.3147 151.242 0.149902 150.849ZM29.3548 60.3182C45.2133 59.5324 58.6578 53.3831 69.6881 41.8703C80.7184 30.3575 86.2336 16.6247 86.2336 0.671875C86.2336 16.6247 91.7684 30.3575 102.838 41.8703C113.908 53.3831 127.372 59.5324 143.23 60.3182C132.789 60.7898 123.211 63.7564 114.496 69.218C105.782 74.6797 98.893 81.9096 93.8292 90.9076C88.7655 99.9057 86.2336 109.67 86.2336 120.2C86.2336 104.169 80.7184 90.3772 69.6881 78.8251C58.6578 67.2731 45.2133 61.1041 29.3548 60.3182ZM71.0424 195.76C82.9755 195.21 93.103 190.593 101.425 181.91C109.747 173.226 113.908 162.872 113.908 150.849C113.908 162.872 118.049 173.226 126.331 181.91C134.614 190.593 144.722 195.21 156.655 195.76C144.722 196.31 134.614 200.927 126.331 209.611C118.049 218.295 113.908 228.648 113.908 240.672C113.908 228.648 109.747 218.295 101.425 209.611C93.103 200.927 82.9755 196.31 71.0424 195.76ZM156.655 136.114C168.588 135.564 178.676 130.967 186.92 122.322C195.163 113.678 199.285 103.304 199.285 91.2023C199.285 103.226 203.446 113.58 211.767 122.263C220.089 130.947 230.217 135.564 242.15 136.114C230.217 136.664 220.089 141.261 211.767 149.906C203.446 158.55 199.285 168.884 199.285 180.908C199.285 168.884 195.163 158.55 186.92 149.906C178.676 141.261 168.588 136.664 156.655 136.114Z"/></svg>