<svg xmlns="http://www.w3.org/2000/svg" width="632" height="470" fill="none" viewBox="0 0 632 470"><path fill="#201D40" d="M544.037 463.672H80.8918C79.3809 463.672 78.156 462.444 78.156 460.93C78.156 459.416 79.3809 458.188 80.8918 458.188H544.037C545.548 458.188 546.772 459.416 546.772 460.93C546.772 462.444 545.548 463.672 544.037 463.672Z"/><path fill="#E49963" d="M234.095 223.554H234.106L241.213 223.58L242.823 240.409L234.525 244.801L225.675 240.459L227.105 223.58L234.095 223.554Z"/><path fill="#E49963" d="M214.565 216.129C218.942 227.086 229.448 233.177 238.035 229.734C246.622 226.291 250.037 214.614 245.66 203.657C241.283 192.7 230.777 186.609 222.19 190.052C213.603 193.495 210.191 205.169 214.565 216.129Z"/><path fill="#000" d="M241.928 207.251C242.435 207.981 243.439 208.164 244.167 207.655C244.895 207.147 245.077 206.141 244.57 205.411C244.063 204.682 243.059 204.499 242.331 205.007C241.601 205.516 241.421 206.522 241.928 207.251Z"/><path fill="#000" d="M229.88 212.18C230.429 212.972 231.513 213.168 232.304 212.615C233.094 212.065 233.289 210.979 232.738 210.186C232.189 209.394 231.105 209.198 230.314 209.751C229.526 210.301 229.331 211.39 229.88 212.18Z"/><path fill="#D68D5D" d="M239.484 209.824C241.658 211.542 244.378 213.616 244.378 213.616C244.378 213.616 244.407 216.243 241.343 217.382C242.451 216.374 243.424 215.034 242.271 213.486C241.117 211.938 239.484 209.824 239.484 209.824Z"/><path fill="#201D40" d="M226.71 211.13C226.647 211.13 226.585 211.122 226.523 211.106C226.091 211.002 225.826 210.569 225.927 210.137C226.208 208.956 227.386 206.722 229.833 206.712C230.28 206.717 230.637 207.069 230.639 207.512C230.642 207.955 230.283 208.318 229.841 208.32C228.028 208.328 227.493 210.489 227.487 210.509C227.402 210.882 227.074 211.13 226.71 211.13Z"/><path fill="#201D40" d="M240.243 203.842C240.129 203.842 240.012 203.814 239.905 203.751C239.585 203.564 239.479 203.154 239.666 202.834C239.694 202.784 240.399 201.604 241.728 201.359C242.636 201.189 243.572 201.489 244.516 202.245C244.804 202.477 244.851 202.899 244.62 203.188C244.388 203.478 243.967 203.524 243.681 203.292C243.054 202.789 242.48 202.584 241.972 202.677C241.25 202.81 240.826 203.506 240.823 203.514C240.696 203.723 240.472 203.842 240.243 203.842Z"/><path fill="#201D40" d="M208.589 207.945C204.889 197.387 213.902 191.314 213.902 191.314C213.902 191.314 211.484 191.098 211.195 187.694C213.005 188.259 215.033 188.218 216.817 187.571C228.832 183.211 237.107 183.268 237.107 188.423C237.107 190.258 245.041 189.002 244.378 201.338C244.425 200.467 241.59 195.395 238.909 194.887C236.22 194.379 238.649 197.97 233.05 198.742C227.399 199.519 223.246 198.145 219.795 201.338C217.096 204.124 216.425 218.294 216.836 219.149C215.894 217.192 210.217 212.584 208.589 207.945Z"/><path fill="#201D40" d="M247.317 209.824C247.317 209.824 247.829 216.254 246.903 218.242C245.941 215.665 243.874 218.396 241.934 218.654C237.242 219.277 228.78 217.708 227.94 224.761C222.208 226.58 216.838 214.281 216.838 214.281C216.508 228.021 226.541 235.822 240.979 233.536C250.487 232.03 251.368 218.758 247.317 209.824Z"/><path fill="#D68D5D" d="M237.429 222.999C236.501 222.777 235.536 222.397 234.532 221.86C234.272 221.719 234.173 221.396 234.314 221.133C234.454 220.872 234.777 220.773 235.037 220.914C237.258 222.102 239.25 222.441 240.953 221.92C243.062 221.276 244.024 219.493 244.035 219.475C244.173 219.214 244.495 219.113 244.758 219.251C245.018 219.389 245.119 219.71 244.984 219.973C244.937 220.062 243.824 222.154 241.286 222.939C240.095 223.309 238.805 223.327 237.429 222.999Z"/><path fill="#E49963" d="M216.7 214.372C219.114 215.73 220.172 218.438 219.062 220.419C217.951 222.4 215.096 222.903 212.68 221.542C210.267 220.184 209.208 217.476 210.319 215.495C211.429 213.515 214.284 213.012 216.7 214.372Z"/><path fill="#D68D5D" d="M216.334 220.301C216.409 220.249 216.472 220.179 216.518 220.093C217.181 218.86 217.072 217.606 216.227 216.736C215.361 215.845 213.962 215.587 212.904 216.126C212.604 216.277 212.485 216.642 212.636 216.942C212.787 217.242 213.151 217.361 213.45 217.21C214.03 216.916 214.87 217.08 215.358 217.586C215.829 218.07 215.863 218.756 215.452 219.519C215.293 219.814 215.403 220.181 215.697 220.343C215.905 220.453 216.152 220.432 216.334 220.301Z"/><path fill="#000" d="M242.321 448.287C243.834 444.169 247.067 443.71 247.067 443.71C253.353 452.402 268.789 447.07 268.277 458.824C244.802 458.673 235.047 458.824 235.047 458.824C235.078 456.124 235.541 449.715 236.085 447.205L237.307 447.429L242.321 448.287Z"/><path fill="#000" d="M207.201 448.513C208.714 444.395 211.947 443.937 211.947 443.937C218.232 452.629 233.669 447.294 233.157 459.051C209.681 458.9 199.927 459.051 199.927 459.051C199.958 456.351 200.421 449.942 200.964 447.434L202.187 447.659L207.201 448.513Z"/><path fill="#201D40" d="M257.935 311.014C257.935 311.014 261.747 366.725 260.197 379.11C258.65 391.495 253.165 407.373 253.787 448.341C246.133 450.262 235.047 448.341 235.047 448.341C235.047 448.341 233.404 402.019 241.494 381.328C238.204 361.23 227.649 315.2 227.649 315.2L257.935 311.014Z"/><path fill="#2E2D57" d="M243.452 312.536C243.452 312.536 235.757 375.08 231.989 386.942C228.221 398.803 220.874 408.835 214.056 449.191C206.192 449.585 198.868 449.191 198.868 449.191C198.868 449.191 199.929 398 212.178 386.358C212.591 365.979 210.199 312.935 210.199 312.935L243.452 312.536Z"/><path fill="#FC6DBD" d="M207.975 241.556C207.975 241.556 221.342 236.867 225.8 239.017C239.648 245.7 242.825 239.017 242.825 239.017C247.252 239.4 260.611 241.556 260.611 241.556C260.611 256.508 261.607 271.513 261.336 282.827C261.144 292.681 263.019 319.495 263.019 319.495C263.019 319.495 248.284 323.368 234.342 323.467C220.401 323.376 206.215 319.652 206.215 319.652C206.215 319.652 206.959 292.491 207.578 282.397C207.372 271.083 207.975 256.467 207.975 241.556Z"/><path fill="#D86713" d="M284.367 263.777C278.851 250.584 262.478 242.194 260.608 241.556L256.811 258.492C264.675 263.152 270.384 268.195 270.384 268.195C269.416 272.91 269.577 277.536 266.855 283.499C266.855 283.499 269.221 280.229 272.139 282.165C274.976 284.047 280.193 280.205 280.193 280.205C280.193 280.205 288.582 273.853 284.367 263.777Z"/><path fill="url(#paint0_linear)" d="M281.293 297.115C281.389 297.144 281.485 297.162 281.579 297.172H281.893C282.468 297.11 282.98 296.716 283.163 296.13L297.871 248.606C297.9 248.51 297.921 248.413 297.931 248.319C297.939 248.257 297.934 248.194 297.934 248.132C297.934 248.095 297.936 248.056 297.934 248.02C297.931 247.986 297.921 247.954 297.915 247.923C297.827 247.384 297.45 246.909 296.891 246.737C296.802 246.709 296.709 246.688 296.61 246.677C296.501 246.667 296.394 246.667 296.29 246.677H259.266L244.43 297.177H281.319L281.293 297.115Z"/><path fill="#5A328E" d="M259.602 246.732C258.814 246.487 257.976 246.928 257.732 247.717L243.117 295.124L243.083 295.233C242.841 296.02 243.278 296.854 244.061 297.102L244.063 297.105C244.851 297.35 245.689 296.909 245.933 296.119L260.587 248.606C260.832 247.816 260.39 246.98 259.602 246.732Z"/><path fill="#E49963" d="M287.576 276.882C287.714 276.791 287.864 276.731 288.018 276.689C288.002 276.666 287.984 276.645 287.968 276.621C287.048 275.23 287.11 273.564 288.106 272.902C288.27 272.793 288.449 272.722 288.637 272.678C288.377 271.646 288.611 270.663 289.321 270.189C289.604 270.001 289.932 269.918 290.275 269.921C289.95 268.907 290.207 267.843 291.006 267.314C292.002 266.652 293.448 267.08 294.236 268.268C295.021 269.457 294.852 270.955 293.853 271.617C293.601 271.784 293.32 271.883 293.029 271.914C293.692 273.21 293.56 274.63 292.657 275.227C292.493 275.337 292.314 275.407 292.127 275.451C292.387 276.483 292.153 277.466 291.443 277.938C291.18 278.112 290.878 278.198 290.561 278.206C290.891 279.092 290.681 280.046 289.981 280.513C289.139 281.073 287.919 280.711 287.253 279.707C286.588 278.709 286.733 277.442 287.576 276.882Z"/><path fill="#E49963" d="M242.056 273.88L245.431 271.92C245.431 271.92 246.365 267.121 251.784 267.007C251.163 269.019 250.268 271.92 250.268 271.92C250.268 271.92 252.936 273.994 259.264 270.442C265.448 269.047 262.806 273.569 264.857 273.893C267.882 274.372 262.652 280.328 256.476 281.24C248.484 282.42 247.538 280.781 247.538 280.781L243.015 282.366L242.056 273.88Z"/><path fill="#FC61A3" d="M210.826 279.006C222.107 278.216 241.351 272.631 241.351 272.631C244.43 277.364 243.58 283.653 243.58 283.653C226.06 299.046 199.695 304.022 191.605 300.318C184.219 296.935 189.434 251.877 207.975 241.556C214.331 252.336 210.826 279.006 210.826 279.006Z"/><path fill="#000" d="M392.638 444.106C386.352 452.509 370.916 447.354 371.428 458.717C394.9 458.571 404.658 458.717 404.658 458.717C404.627 456.108 404.164 449.91 403.623 447.487L392.638 444.106Z"/><path fill="#000" d="M427.758 444.325C421.473 452.728 406.036 447.573 406.548 458.936C430.023 458.79 439.778 458.936 439.778 458.936C439.747 456.327 439.284 450.129 438.743 447.706L427.758 444.325Z"/><path fill="#201D40" d="M381.77 315.823C381.77 315.823 377.96 369.68 379.508 381.654C381.055 393.627 386.54 408.978 385.918 448.581C393.569 450.437 404.658 448.581 404.658 448.581C404.658 448.581 406.301 403.799 398.211 383.799C401.501 364.368 412.056 319.868 412.056 319.868L381.77 315.823Z"/><path fill="#2E2D57" d="M396.255 317.293C396.255 317.293 403.95 377.757 407.719 389.225C411.487 400.693 418.833 410.391 425.652 449.405C433.516 449.785 442.886 447.846 442.886 447.846C442.886 447.846 439.775 399.916 427.529 388.662C427.116 368.958 429.511 317.681 429.511 317.681L396.255 317.293Z"/><path fill="#E49963" d="M427.597 218.375C423.426 228.822 413.409 234.628 405.222 231.344C397.035 228.06 393.78 216.931 397.951 206.485C402.122 196.039 412.139 190.232 420.326 193.514C428.513 196.798 431.768 207.929 427.597 218.375Z"/><path fill="#000" d="M401.511 209.913C401.027 210.608 400.073 210.78 399.376 210.296C398.681 209.811 398.51 208.852 398.994 208.156C399.477 207.46 400.432 207.288 401.129 207.773C401.823 208.258 401.995 209.217 401.511 209.913Z"/><path fill="#000" d="M412.998 214.612C412.475 215.365 411.44 215.553 410.686 215.029C409.934 214.505 409.747 213.468 410.272 212.712C410.795 211.959 411.83 211.771 412.584 212.295C413.336 212.821 413.52 213.856 412.998 214.612Z"/><path fill="#D68D5D" d="M403.838 212.365C401.766 214.002 399.173 215.98 399.173 215.98C399.173 215.98 399.147 218.485 402.068 219.572C401.012 218.61 400.083 217.333 401.183 215.858C402.283 214.38 403.838 212.365 403.838 212.365Z"/><path fill="#000" d="M416.02 213.611C415.674 213.611 415.359 213.374 415.276 213.022C415.255 212.941 414.743 210.942 413.031 210.934C412.61 210.932 412.267 210.588 412.269 210.163C412.272 209.738 412.618 209.397 413.039 209.399C415.372 209.41 416.495 211.542 416.763 212.665C416.862 213.077 416.607 213.491 416.196 213.588C416.137 213.603 416.077 213.611 416.02 213.611Z"/><path fill="#000" d="M403.118 206.663C402.9 206.663 402.689 206.55 402.569 206.35C402.556 206.332 402.146 205.67 401.462 205.547C400.981 205.461 400.434 205.659 399.841 206.133C399.566 206.355 399.165 206.308 398.944 206.034C398.723 205.758 398.77 205.357 399.043 205.135C399.943 204.416 400.835 204.132 401.701 204.291C402.967 204.525 403.638 205.651 403.667 205.698C403.846 206.003 403.742 206.394 403.441 206.574C403.337 206.634 403.225 206.663 403.118 206.663Z"/><path fill="#000" d="M424.687 219.465C421.67 209.743 425.485 204.58 425.485 204.58C422.895 204.059 421.889 204.958 421.889 204.958C420.477 202.052 421.569 199.967 421.569 199.967C416.215 197.877 413.552 201.351 408.72 202.521C402.106 204.124 393.936 201.479 393.171 193.389C393.059 192.218 394.346 191.46 395.322 192.114C396.227 192.721 397.428 193.211 398.923 193.17C398.923 193.17 397.537 191.603 397.467 189.437C397.428 188.241 398.827 187.597 399.743 188.361C401.118 189.508 403.669 190.592 408.218 189.737C411.245 189.169 418.175 184.311 422.492 185.259C426.021 186.036 428.822 189.044 430.026 193.352C430.026 193.352 438.699 194.254 439.57 203.822C440.426 213.22 429.561 220.434 429.561 220.434L424.687 219.465Z"/><path fill="#E49963" d="M423.504 217.844C421.208 219.147 420.209 221.732 421.273 223.617C422.339 225.501 425.064 225.97 427.36 224.664C429.657 223.359 430.655 220.776 429.592 218.891C428.528 217.01 425.803 216.541 423.504 217.844Z"/><path fill="#D68D5D" d="M423.876 223.497C423.806 223.447 423.743 223.379 423.699 223.299C423.062 222.126 423.161 220.93 423.964 220.096C424.786 219.243 426.12 218.993 427.132 219.501C427.418 219.645 427.532 219.991 427.389 220.278C427.246 220.565 426.9 220.679 426.614 220.536C426.06 220.257 425.259 220.416 424.794 220.901C424.346 221.365 424.318 222.019 424.713 222.746C424.867 223.028 424.763 223.379 424.482 223.531C424.284 223.64 424.05 223.619 423.876 223.497Z"/><path fill="#fff" d="M399.649 222.91C399.425 222.543 399.742 222.084 400.164 222.173C401.235 222.399 403.011 222.736 404.72 222.889C406.429 223.043 408.236 223.025 409.331 222.994C409.763 222.981 409.994 223.489 409.708 223.81C408.826 224.803 407.061 226.27 404.439 226.035C401.82 225.801 400.341 224.044 399.649 222.91Z"/><path fill="#201D40" d="M388.633 236.599C388.633 236.599 389.023 235.535 355.242 235.809L346.187 246.537C355.559 254.069 386.953 255.409 386.953 255.409L388.633 236.599Z"/><path fill="url(#paint1_linear)" d="M400.908 235.726L411.562 234.727L421.868 237.61L410.254 249.589L400.908 235.726Z"/><path fill="#E49963" d="M404.6 241.222C408.943 244.796 409.83 247.264 419.054 242.489L420.438 228.274L405.422 227.088L404.6 241.222Z"/><path fill="url(#paint2_linear)" d="M424.604 243.331L421.447 242.077L421.868 237.607L413.109 244.658L410.636 245.051L408.272 244.222L400.905 235.723L400.528 240.198L397.743 240.758L387.697 242.39L386.501 298.28L382.537 317.296C395.87 321.739 410.779 322.85 425.436 320.825L424.945 301.736L435.355 247.115L424.604 243.331Z"/><path fill="#2E2D57" d="M408.712 250.699L402.419 293.372L405.903 298.225L410.446 294.728L411.994 251.053L408.712 250.699Z"/><path fill="#2E2D57" d="M408.337 245.661L410.636 245.054L412.982 246.078L411.989 251.137L408.691 250.84L408.337 245.661Z"/><path fill="#2E2D57" d="M400.759 236.083L399.181 287.63L392.373 320.825C392.373 320.825 381.606 319.735 374.991 313.428L383.468 288.438L386.365 236.221L400.759 236.083Z"/><path fill="#494C7F" d="M400.759 236.083L399.191 286.937L391.353 247.965L400.759 236.083Z"/><path fill="#2E2D57" d="M422.674 239.38L408.694 322.949C408.694 322.949 427.246 325.232 434.873 320.204L430.733 292.734L435.794 246.096L422.674 239.38Z"/><path fill="#494C7F" d="M422.674 239.38L414.503 288.36L429.134 251.405L422.674 239.38Z"/><path fill="#E49963" d="M330.295 190.235C331.039 192.844 331.26 195.653 334.56 197.061C334.56 197.061 334.071 205.714 334.438 212.811C334.438 212.811 342.424 203.785 342.421 203.78C341.964 200.918 341.594 195.507 342.034 192.437C342.148 191.64 342.304 190.845 342.429 190.047C342.772 188.108 343.342 186.122 342.164 183.779C337.608 174.732 339.142 171.753 338.513 171.313C337.493 170.862 335.093 172.684 336.45 177.128C337.764 181.431 337.439 183.542 337.439 183.542C337.439 183.542 333.996 182.89 332.773 184.097C332.214 184.644 329.426 187.185 330.295 190.235Z"/><path fill="#201D40" d="M332.149 202.43C336.804 200.877 339.254 200.175 342.871 200.175C351.427 225.73 357.525 235.358 354.982 242.695C352.863 248.812 346.151 248.322 342.871 243.74C338.544 237.693 334.711 214.724 332.149 202.43Z"/><path fill="#201D40" d="M435.794 246.094L462.751 288.36L494.767 306.479L484.898 316.324L452.778 302.213L430.736 271.041L435.794 246.094Z"/><path fill="#fff" d="M410.636 245.054C410.636 245.054 406.67 249.067 403.024 250.092L398.713 238.666L400.905 235.723L410.636 245.054Z"/><path fill="#fff" d="M410.636 245.054C410.636 245.054 412.896 248.945 417.231 251.371L423.504 240.931L421.865 237.613L410.636 245.054Z"/><path fill="url(#paint3_linear)" d="M439.978 365.377H204.61C199.079 365.377 194.593 362.354 194.593 358.621C194.593 354.892 199.076 351.866 204.61 351.866H439.978C445.51 351.866 449.996 354.889 449.996 358.621C449.996 362.354 445.51 365.377 439.978 365.377Z"/><path fill="url(#paint4_linear)" d="M292.824 460.565C290.301 460.565 288.785 457.761 290.163 455.642L352.309 360.196L357.629 363.675L295.484 459.121C294.899 460.023 293.898 460.565 292.824 460.565Z"/><path fill="url(#paint5_linear)" d="M351.765 460.565C354.288 460.565 355.804 457.761 354.425 455.642L292.28 360.196L286.959 363.675L349.105 459.121C349.69 460.023 350.691 460.565 351.765 460.565Z"/><path fill="#5A328E" d="M449.348 459.053C447.668 459.053 446.305 457.688 446.305 456.004V401.978H452.391V456.004C452.391 457.688 451.028 459.053 449.348 459.053Z"/><path fill="#5A328E" d="M470.696 459.053C469.016 459.053 467.653 457.688 467.653 456.004V401.978H473.739V456.004C473.739 457.688 472.376 459.053 470.696 459.053Z"/><path fill="#5A328E" d="M498.709 459.053C497.029 459.053 495.666 457.688 495.666 456.004V401.978H501.752V456.004C501.752 457.688 500.389 459.053 498.709 459.053Z"/><path fill="#5A328E" d="M520.06 459.053C518.38 459.053 517.017 457.688 517.017 456.004V401.978H523.102V456.004C523.102 457.688 521.74 459.053 520.06 459.053Z"/><path fill="url(#paint6_linear)" d="M486.396 321.799V386.089C486.396 386.822 485.805 387.413 485.074 387.413H445.302C441.289 387.413 438.036 390.674 438.036 394.696C438.036 398.717 441.289 401.978 445.302 401.978H486.396H493.661C497.674 401.978 500.927 398.717 500.927 394.696V387.413V321.797C500.927 317.775 497.674 314.515 493.661 314.515C489.649 314.517 486.396 317.778 486.396 321.799Z"/><path fill="url(#paint7_linear)" d="M525.107 314.517H493.661V388.597H525.107V314.517Z"/><path fill="#5A328E" d="M517.841 321.799V386.089C517.841 386.822 517.248 387.413 516.52 387.413H476.747C472.735 387.413 469.482 390.674 469.482 394.696C469.482 398.717 472.735 401.978 476.747 401.978H517.841H525.107C529.12 401.978 532.373 398.717 532.373 394.696V387.413V321.797C532.373 317.775 529.12 314.515 525.107 314.515C521.095 314.517 517.841 317.778 517.841 321.799Z"/><path fill="#5A328E" d="M192.263 459.053C193.943 459.053 195.306 457.688 195.306 456.004V401.978H189.22V456.004C189.22 457.688 190.583 459.053 192.263 459.053Z"/><path fill="#5A328E" d="M170.912 459.053C172.592 459.053 173.955 457.688 173.955 456.004V401.978H167.87V456.004C167.87 457.688 169.232 459.053 170.912 459.053Z"/><path fill="#5A328E" d="M142.899 459.053C144.579 459.053 145.942 457.688 145.942 456.004V401.978H139.857V456.004C139.857 457.688 141.219 459.053 142.899 459.053Z"/><path fill="#5A328E" d="M121.551 459.053C123.231 459.053 124.594 457.688 124.594 456.004V401.978H118.509V456.004C118.509 457.688 119.871 459.053 121.551 459.053Z"/><path fill="url(#paint8_linear)" d="M155.216 321.799V386.089C155.216 386.822 155.808 387.413 156.537 387.413H196.309C200.322 387.413 203.575 390.674 203.575 394.696C203.575 398.717 200.322 401.978 196.309 401.978H155.216H147.95C143.937 401.978 140.684 398.717 140.684 394.696V387.413V321.797C140.684 317.775 143.937 314.515 147.95 314.515C151.962 314.517 155.216 317.778 155.216 321.799Z"/><path fill="url(#paint9_linear)" d="M116.504 388.594H147.95V314.517H116.504V388.594Z"/><path fill="#5A328E" d="M123.767 321.799V386.089C123.767 386.822 124.36 387.413 125.088 387.413H164.861C168.874 387.413 172.127 390.674 172.127 394.696C172.127 398.717 168.874 401.978 164.861 401.978H123.767H116.501C112.488 401.978 109.235 398.717 109.235 394.696V387.413V321.797C109.235 317.775 112.488 314.515 116.501 314.515C120.516 314.517 123.767 317.778 123.767 321.799Z"/><path fill="#2E2D57" d="M470.21 297.229C463.498 294.803 453.134 289.499 460.023 279.806C466.912 270.113 466.735 274.343 464.257 262.568C461.779 250.793 470.132 241.532 478.095 243.876C486.057 246.219 488.091 252.677 497.854 251.043C507.616 249.409 515.73 258.56 512.055 266.493C508.381 274.427 506.81 278.248 510.248 282.639C513.683 287.031 529.164 291.764 522.707 302.286C516.25 312.807 513.29 312.161 515.535 317.556C517.776 322.951 512.604 329.092 503.629 328.253C494.655 327.413 486.528 324.012 483.238 313.97C479.944 303.925 470.21 297.229 470.21 297.229Z"/><path fill="#E49963" d="M446.469 450.176L441.167 451.764L437.172 447.672C437.362 447.388 437.18 444.646 436.564 441.727L446.469 440.079C446.865 443.105 446.469 447.122 446.469 450.176Z"/><path fill="#F1A34F" d="M441.206 450.807C439.944 447.489 437.25 447.122 437.25 447.122C432.013 454.125 419.148 449.827 419.574 459.298C439.138 459.176 447.268 459.298 447.268 459.298C447.242 457.122 446.854 451.959 446.404 449.939L445.385 450.122L441.206 450.807Z"/><path fill="#E49963" d="M411.203 451.164L405.682 451.545L402.507 448.156C402.757 447.922 403.355 443.726 403.394 440.739L412.701 441.153C412.423 444.19 411.874 448.185 411.203 451.164Z"/><path fill="#F1A34F" d="M406.28 450.807C405.019 447.489 402.325 447.122 402.325 447.122C397.087 454.125 384.222 449.827 384.649 459.298C404.213 459.176 412.342 459.298 412.342 459.298C412.316 457.122 411.929 451.959 411.479 449.939L410.46 450.122L406.28 450.807Z"/><path fill="url(#paint10_linear)" d="M467.037 358.637C451.964 360.67 409.505 376.438 407.139 379.292C402.25 385.185 404.827 417.251 402.504 443.71L414.847 444.44C420.758 422.893 420.287 413.591 422.96 388.878C422.96 388.878 471.468 392.519 488.996 380.663C507.07 368.437 479.226 355.741 467.037 358.637Z"/><path fill="#D68D5D" d="M447.395 327.226C450.958 327.836 452.328 330.697 453.189 335.972C439.619 343.984 419.46 344.555 419.46 344.555L413.034 341.37C413.034 341.37 429.199 335.535 447.395 327.226Z"/><path fill="#D68D5D" d="M484.502 312.148C478.563 320.796 455.813 339.395 452.047 339.981L447.486 327.184C447.486 327.184 469.697 303.089 473.741 298.832C480.726 291.441 494.223 298.045 484.502 312.148Z"/><path fill="#FF4F78" d="M459.482 310.764C464.244 305.622 470.446 294.013 478.519 294.839C486.588 295.666 487.173 304.248 484.739 308.872C482.305 313.493 473.905 324.885 473.905 324.885L459.482 310.764Z"/><path fill="#E49963" d="M460.944 332.522C464.364 333.702 466.317 344.503 465.357 345.329C450.69 351.152 420.175 344.855 420.175 344.855L418.555 339.316C418.558 339.314 441.664 337.896 460.944 332.522Z"/><path fill="#FC6DBD" d="M509.2 367.715C505.845 350.372 504.399 344.227 503.008 336.066C499.565 315.896 509.689 301.72 492.333 292.053L479.684 294.097C469.456 304.882 463.16 314.671 462.619 321.432C461.878 330.155 470.514 334.888 470.514 334.888L467.04 358.637C467.04 358.637 466.223 360.576 480.484 363.276C494.749 365.976 509.2 367.715 509.2 367.715Z"/><path fill="#E49963" d="M498.803 314.608C492.863 323.358 467.487 345.59 463.675 345.788L460.944 332.522C460.944 332.522 483.998 305.447 488.039 301.139C495.027 293.661 508.526 300.344 498.803 314.608Z"/><path fill="#FF4F78" d="M474.542 314.668C478.973 308.205 487.912 296.283 495.984 297.11C504.053 297.936 504.638 306.518 502.204 311.142C499.773 315.763 491.37 327.155 491.37 327.155L474.542 314.668Z"/><path fill="#E49963" d="M418.558 339.314C413.892 338.164 403.747 334.747 399.665 345.454C400.689 347.419 404.444 342.569 406.057 342.118C408.618 341.404 410.813 342.754 412.753 344.61C415.533 347.271 420.178 344.85 420.178 344.85L418.558 339.314Z"/><path fill="#FF4F78" d="M414.927 351.754H371.1V345.856H420.81C420.812 349.114 418.178 351.754 414.927 351.754Z"/><path fill="#FF4F78" d="M348.566 314.705L371.103 351.754L376.312 349.009L351.037 306.74C348.161 308.257 347.053 311.822 348.566 314.705Z"/><path fill="#E49963" d="M498.122 275.532C495.992 284.451 488.596 290.323 481.605 288.647C474.615 286.968 470.675 278.378 472.808 269.459C474.938 260.538 482.334 254.668 489.324 256.344C496.314 258.02 500.254 266.613 498.122 275.532Z"/><path fill="#E49963" d="M494.736 280.231L483.119 287.448C483.119 287.448 482.089 292.593 481.574 294.264C480.513 297.709 484.58 299.213 488.018 297.071C491.456 294.926 492.333 292.056 492.333 292.056L494.736 280.231Z"/><path fill="#2E2D57" d="M472.007 266.05C475.307 266.334 482.461 265.761 485.069 262.662C486.929 268.956 494.832 274.945 501.37 277.755C501.632 271.297 501.583 259.42 490.034 254.483C480.963 250.605 472.007 266.05 472.007 266.05Z"/><path fill="#000" d="M476.084 271.8C475.778 272.42 475.026 272.67 474.407 272.363C473.788 272.055 473.538 271.302 473.845 270.681C474.152 270.061 474.904 269.811 475.523 270.118C476.139 270.429 476.391 271.182 476.084 271.8Z"/><path fill="#000" d="M485.901 274.229C485.569 274.899 484.755 275.172 484.086 274.839C483.418 274.505 483.145 273.692 483.478 273.019C483.811 272.35 484.625 272.076 485.293 272.41C485.964 272.743 486.234 273.559 485.901 274.229Z"/><path fill="#2E2D57" d="M487.397 273.106C487.303 273.059 487.228 272.983 487.181 272.881C486.502 271.414 484.671 271.13 484.653 271.127C484.396 271.088 484.219 270.851 484.255 270.593C484.292 270.335 484.528 270.158 484.786 270.194C484.882 270.207 487.139 270.549 488.036 272.485C488.146 272.722 488.044 273.001 487.808 273.111C487.67 273.173 487.522 273.168 487.397 273.106Z"/><path fill="#2E2D57" d="M473.356 269.986C473.312 269.962 473.268 269.934 473.232 269.894C473.05 269.709 473.05 269.41 473.234 269.227C474.67 267.807 476.438 268.396 476.513 268.422C476.758 268.508 476.891 268.774 476.805 269.021C476.722 269.266 476.454 269.397 476.209 269.313C476.152 269.295 474.906 268.899 473.897 269.897C473.752 270.043 473.533 270.072 473.356 269.986Z"/><path fill="#D68D5D" d="M476.888 274.526C476.201 275.232 475.601 275.962 474.945 276.376C474.724 276.514 474.654 276.809 474.782 277.038C475.312 277.979 476.854 278.753 477.801 279.157C477.939 279.215 478.053 279.035 477.939 278.936C476.982 278.096 476.573 277.476 476.399 277.137C476.313 276.968 476.316 276.77 476.402 276.6C476.597 276.212 476.989 275.42 477.252 274.766C477.346 274.536 477.057 274.351 476.888 274.526Z"/><path fill="#E49963" d="M494.759 275.589C493.061 276.913 492.559 279.116 493.641 280.51C494.723 281.904 496.977 281.959 498.675 280.635C500.374 279.311 500.876 277.109 499.794 275.714C498.709 274.32 496.457 274.265 494.759 275.589Z"/><path fill="#D68D5D" d="M495.724 280.106C495.661 280.075 495.604 280.028 495.557 279.968C494.904 279.097 494.845 278.12 495.393 277.354C495.955 276.569 497 276.21 497.877 276.499C498.124 276.582 498.257 276.848 498.176 277.096C498.095 277.343 497.827 277.476 497.58 277.395C497.099 277.236 496.475 277.461 496.155 277.904C495.848 278.331 495.903 278.863 496.306 279.4C496.462 279.608 496.421 279.903 496.213 280.059C496.069 280.171 495.88 280.182 495.724 280.106Z"/><path fill="url(#paint11_linear)" d="M483.902 361.392C468.829 363.425 426.307 377.238 423.941 380.09C419.052 385.983 429.935 411.22 433.417 443.708H447.965C447.814 420.558 449.658 399.262 442.55 391.717C442.55 391.717 483.309 388.99 503.627 388.99C513.985 388.993 519.716 353.914 483.902 361.392Z"/><path fill="#fff" d="M476.251 282.032C476.051 281.761 476.266 281.38 476.602 281.42C477.455 281.521 478.864 281.662 480.209 281.665C481.556 281.665 482.966 281.529 483.819 281.427C484.154 281.388 484.37 281.769 484.17 282.04C483.551 282.876 482.271 284.143 480.206 284.141C478.147 284.138 476.87 282.869 476.251 282.032Z"/><path fill="#E49963" d="M186.825 336.447C183.946 338.368 184.745 348.827 185.832 349.358C200.798 351.191 226.075 338.764 226.075 338.764L227.066 333.205C227.063 333.207 205.952 336.752 186.825 336.447Z"/><path fill="#E49963" d="M153.939 318.309C159.288 326.884 182.706 349.056 186.342 349.385L189.436 336.814C189.436 336.814 168.416 310.105 164.71 305.841C158.315 298.444 145.177 304.327 153.939 318.309Z"/><path fill="#2E2D57" d="M166.739 272.493C167.381 263.715 164.851 255.958 157.866 252.007C150.787 248.004 141.916 251.932 141.916 251.932C141.916 251.932 134.409 249.255 127.606 256.766C120.802 264.278 125.949 270.888 123.164 276.363C121.515 279.608 113.136 280.275 115.3 290.841C115.924 293.888 119.58 295.939 122.677 296.143C128.12 296.502 133.186 294.394 135.392 296.502C142.66 303.448 158.771 300.936 161.023 294.582C161.722 292.611 176.212 296.424 174.766 283.004C174.038 276.199 166.164 280.338 166.739 272.493Z"/><path fill="#E49963" d="M153.46 300.873L141.955 298.744L137.641 304.496L146.811 323.335L160.294 311.864L153.46 300.873Z"/><path fill="url(#paint12_linear)" d="M168.372 346.296C168.174 342.712 173.955 327.992 170.912 320.582C168.697 314.621 164.994 304.618 160.461 302.948C158.321 302.161 156.123 301.611 153.458 300.873C153.458 300.873 154.961 308.385 151.83 308.635C145.799 309.12 141.955 298.744 141.955 298.744C138.705 298.434 123.788 303.344 123.796 304.572C123.832 314.186 131.626 328.213 134.174 338.607C135.178 349.833 131.27 363.268 131.254 364.546C131.254 364.546 155.247 371.306 169.472 363.459C169.768 362.364 168.645 351.246 168.372 346.296Z"/><path fill="url(#paint13_linear)" d="M134.864 353.01C134.864 353.01 129.566 366.404 128.276 374.835C126.984 383.267 134.273 388.675 134.273 388.675H194.895C194.895 388.675 201.386 378.127 199.516 370.843C197.646 363.558 193.347 362.401 193.347 362.401L134.864 353.01Z"/><path fill="#D68D5D" d="M195.706 362.028C187.967 360.933 165.503 369.677 155.926 388.675H182.722L195.706 362.028Z"/><path fill="#D68D5D" d="M187.221 369.018C188.222 367.921 189.129 366.568 189.928 365.158C192.188 361.17 197.631 360.495 200.704 363.894C211.876 376.24 235.695 404.383 241.005 407.886C242.506 408.877 251.259 413.928 259.581 412.927C259.581 412.927 263.69 414.493 260.951 417.764C259.544 419.445 238.394 421.186 238.394 421.186L236.745 414.962C224.434 405.83 209.109 406.487 196.114 389.793C188.963 380.598 187.221 369.018 187.221 369.018Z"/><path fill="#F1A34F" d="M242.68 424.773L251.191 430.308L252.362 428.911L245.46 422.461C249.381 419.359 258.463 421.947 258.463 421.947C261.438 420.021 267.237 413.777 267.835 410.43C265.929 408.05 259.586 412.945 259.586 412.945C259.82 414.006 257.815 417.676 256.221 418.304C249.29 419.802 242.386 417.829 236.751 414.962C236.748 414.96 232.038 422.112 242.68 424.773Z"/><path fill="#E49963" d="M187.096 370.697C185.546 371.114 184.389 372.417 184.165 374.009C183.559 378.317 180.428 387.043 184.664 396.181C195.061 418.614 201.199 433.397 202.288 439.185C199.573 444.283 210.402 458.206 210.563 459.119L218.357 456.674C218.357 456.674 213.884 450.007 212.274 447.395C208.441 441.179 207.812 433.551 207.19 427.637C204.53 402.392 209.104 386.452 190.88 371.643C189.8 370.767 188.435 370.334 187.096 370.697Z"/><path fill="#F1A34F" d="M198.406 449.864L199.173 460.002L200.99 460.086L201.924 450.672C206.761 451.917 210.217 460.724 210.217 460.724C213.548 461.928 222.021 462.762 225.038 461.209C225.771 458.248 218.042 456.16 218.042 456.16C217.343 456.989 213.213 457.617 211.749 456.729C206.358 452.116 203.43 445.415 202.288 439.186C202.288 439.186 194.068 439.769 198.406 449.864Z"/><path fill="#E49963" d="M150.553 291.457L141.212 290.054L141.955 298.744C141.955 298.744 143.745 302.682 145.817 302.948L153.46 300.873L150.553 291.457Z"/><path fill="#E49963" d="M132.567 278.891C134.978 288.986 143.347 295.629 151.258 293.732C159.168 291.835 163.626 282.11 161.215 272.019C158.804 261.924 150.436 255.281 142.525 257.178C134.614 259.076 130.157 268.797 132.567 278.891Z"/><path fill="#000" d="M157.507 274.667C157.855 275.368 158.703 275.652 159.402 275.303C160.102 274.953 160.385 274.101 160.037 273.403C159.688 272.701 158.841 272.417 158.141 272.767C157.444 273.116 157.158 273.968 157.507 274.667Z"/><path fill="#000" d="M146.397 277.414C146.774 278.172 147.692 278.48 148.452 278.102C149.208 277.724 149.515 276.804 149.141 276.043C148.764 275.284 147.843 274.974 147.086 275.355C146.327 275.735 146.02 276.655 146.397 277.414Z"/><path fill="#2E2D57" d="M144.704 276.144C144.808 276.092 144.897 276.006 144.949 275.892C145.716 274.231 147.788 273.908 147.809 273.906C148.1 273.864 148.301 273.593 148.259 273.301C148.218 273.009 147.95 272.808 147.658 272.847C147.549 272.863 144.995 273.249 143.981 275.441C143.856 275.709 143.973 276.024 144.241 276.15C144.395 276.223 144.564 276.215 144.704 276.144Z"/><path fill="#2E2D57" d="M160.591 272.613C160.643 272.587 160.69 272.553 160.731 272.511C160.937 272.303 160.937 271.964 160.726 271.755C159.101 270.147 157.101 270.815 157.015 270.843C156.737 270.94 156.589 271.242 156.685 271.521C156.781 271.797 157.083 271.946 157.358 271.852C157.423 271.831 158.833 271.383 159.977 272.514C160.146 272.681 160.393 272.712 160.591 272.613Z"/><path fill="#D68D5D" d="M156.596 277.75C157.371 278.55 158.053 279.374 158.794 279.843C159.044 280.002 159.124 280.333 158.979 280.591C158.38 281.654 156.633 282.53 155.561 282.986C155.405 283.054 155.275 282.848 155.405 282.736C156.487 281.785 156.953 281.086 157.148 280.7C157.244 280.51 157.241 280.283 157.145 280.093C156.924 279.652 156.482 278.759 156.183 278.016C156.079 277.763 156.407 277.552 156.596 277.75Z"/><path fill="#E49963" d="M136.375 278.954C138.296 280.453 138.863 282.947 137.638 284.521C136.414 286.098 133.865 286.161 131.943 284.662C130.021 283.163 129.455 280.669 130.679 279.095C131.902 277.518 134.453 277.455 136.375 278.954Z"/><path fill="#D68D5D" d="M135.28 284.065C135.353 284.029 135.415 283.976 135.467 283.909C136.206 282.923 136.273 281.818 135.652 280.95C135.014 280.062 133.834 279.655 132.84 279.984C132.562 280.077 132.409 280.377 132.502 280.659C132.593 280.937 132.895 281.091 133.176 280.997C133.719 280.818 134.427 281.07 134.788 281.573C135.134 282.056 135.074 282.658 134.617 283.268C134.44 283.502 134.487 283.838 134.723 284.016C134.89 284.141 135.106 284.154 135.28 284.065Z"/><path fill="#fff" d="M147.853 285.798C147.63 285.496 147.872 285.076 148.243 285.121C149.187 285.233 150.75 285.389 152.241 285.389C153.731 285.389 155.294 285.235 156.238 285.121C156.609 285.076 156.851 285.498 156.628 285.798C155.941 286.726 154.526 288.131 152.241 288.131C149.955 288.131 148.537 286.726 147.853 285.798Z"/><path fill="#2E2D57" d="M132.372 277.998C141.815 276.731 155.026 267.09 156.108 262.143C154.282 256.201 144.551 253.214 139.056 255.966C133.563 258.719 128.373 270.52 132.372 277.998Z"/><path fill="#fff" d="M220.7 349.554C219.444 349.142 218.757 347.79 219.168 346.528L233.742 301.785C234.153 300.527 235.502 299.839 236.761 300.25C238.017 300.662 238.704 302.015 238.293 303.276L223.719 348.019C223.308 349.278 221.956 349.966 220.7 349.554Z"/><path fill="#E49963" d="M228.442 333.52L231.412 324.403C231.412 324.403 233.986 329.647 231.412 334.625C228.837 339.603 226.387 339.825 226.387 339.825L228.442 333.52Z"/><path fill="#E49963" d="M224.2 331.081C223.449 329.311 221.68 324.883 223.449 324.904C225.217 324.924 225.506 327.075 225.506 327.075L224.2 331.081Z"/><path fill="#E49963" d="M78.2029 304.436C82.2103 300.383 79.5812 296.229 79.5812 296.229C81.7812 295.757 93.3849 313.373 98.3857 324.565C107.113 315.75 122.49 303.844 126.649 303.151C126.649 303.151 132.258 301.639 134.273 308.437C136.073 314.504 129.057 318.802 129.057 318.802C129.057 318.802 99.0411 340.041 94.6019 338.151C87.6975 335.214 81.4458 309.938 78.2029 304.436Z"/><path fill="#E49963" d="M71.9381 303.933C74.3879 304.084 77.4149 302.87 78.3589 305.069L83.1933 302.708L83.4872 299.786C79.3341 293.117 69.2076 291.222 68.2064 291.136C65.6006 290.907 64.3913 290.638 64.1885 290.987C63.9857 291.337 63.3485 293.662 67.1271 294.115C71.8705 294.686 68.7213 298.486 59.0992 294.868C56.6911 293.964 52.1558 295.139 53.7967 296.904C55.6015 298.846 60.7922 303.253 71.9381 303.933Z"/><path fill="url(#paint14_linear)" d="M333.816 168.104C333.816 170.317 333.439 172.457 332.729 174.49C329.179 184.702 317.334 192.203 303.26 192.203C289.191 192.203 277.343 184.702 273.793 174.49C273.083 172.457 272.706 170.315 272.706 168.104H333.816Z"/><path fill="url(#paint15_linear)" d="M333.816 168.104C333.816 170.317 333.439 172.457 332.729 174.49H273.795C273.085 172.457 272.708 170.315 272.708 168.104H333.816Z"/><path fill="#FFE91D" d="M367.246 64.8004C367.246 29.4143 338.648 0.721338 303.353 0.671818C268.542 0.622298 239.91 28.7393 239.286 63.6223C239.013 78.8797 244.058 92.946 252.689 104.085C263.609 118.18 269.668 135.442 269.668 153.288V153.603H336.856V153.288C336.856 135.419 342.962 118.154 353.879 104.025C362.258 93.1858 367.246 79.5756 367.246 64.8004Z"/><path fill="#fff" d="M312.942 146.347C312.762 146.347 312.583 146.318 312.403 146.256C311.55 145.959 311.1 145.023 311.397 144.168C311.472 143.952 319.016 122.163 324.498 99.9779C334.217 60.6537 329.216 54.263 326.615 53.3403C318.967 50.6272 312.879 54.6409 309.116 58.4852C308.011 59.6138 306.95 60.8909 305.954 62.28C307.587 65.1131 309.059 68.2407 310.294 71.5455C313.683 80.6181 314.582 89.0913 312.702 94.2127C311.251 98.1639 308.169 100.166 304.022 99.8528C300.108 99.5583 297.247 97.2882 295.744 93.2875C294.02 88.7003 294.244 81.9552 296.355 74.78C297.689 70.2502 299.684 65.8924 302.1 62.1367C299.843 58.5582 297.232 55.4801 294.397 53.4107C290.187 50.3353 286.231 50.1997 282.642 53.012C275.234 58.8162 274.95 76.2786 281.823 103.504C287.123 124.496 294.899 143.902 294.977 144.095C295.315 144.934 294.909 145.891 294.072 146.23C293.235 146.568 292.28 146.162 291.942 145.323C291.864 145.127 284.016 125.541 278.658 104.338C271.333 75.3299 271.993 57.1925 280.627 50.4291C285.37 46.7125 290.943 46.8324 296.324 50.7601C299.021 52.7305 301.684 55.6808 304.1 59.2932C304.958 58.1777 305.855 57.1378 306.781 56.1917C313.04 49.7931 320.473 47.682 327.707 50.2492C332.212 51.8469 334.061 57.9249 333.356 68.8245C332.838 76.865 330.924 87.6161 327.668 100.783C322.147 123.114 314.559 145.026 314.484 145.244C314.252 145.922 313.618 146.347 312.942 146.347ZM303.962 65.3477C302.113 68.4961 300.573 72.0355 299.494 75.7078C297.609 82.1168 297.351 88.2573 298.807 92.1329C299.858 94.9294 301.645 96.3864 304.269 96.5844C306.976 96.7877 308.682 95.6748 309.634 93.0816C311.802 87.173 309.171 75.111 303.962 65.3477Z"/><path fill="url(#paint16_linear)" d="M341.035 170.203H265.489C264.27 170.203 263.279 169.21 263.279 167.987V147.744C263.279 146.522 264.267 145.529 265.489 145.529H341.035C342.255 145.529 343.246 146.519 343.246 147.744V167.987C343.246 169.21 342.255 170.203 341.035 170.203Z"/><path fill="#FFE91D" d="M411.963 67.4353H391.041C388.064 67.4353 385.65 65.0166 385.65 62.0324C385.65 59.0482 388.064 56.6295 391.041 56.6295H411.963C414.94 56.6295 417.354 59.0482 417.354 62.0324C417.356 65.0166 414.94 67.4353 411.963 67.4353Z"/><path fill="#FFE91D" d="M215.481 67.4353H194.559C191.582 67.4353 189.168 65.0166 189.168 62.0324C189.168 59.0482 191.582 56.6295 194.559 56.6295H215.481C218.458 56.6295 220.872 59.0482 220.872 62.0324C220.872 65.0166 218.458 67.4353 215.481 67.4353Z"/><path fill="#FFE91D" d="M228.777 23.0731L212.129 10.3751C209.759 8.56894 209.299 5.17811 211.104 2.80375C212.906 0.429395 216.289 -0.031924 218.659 1.77686L235.307 14.4723C237.676 16.281 238.137 19.6693 236.332 22.0462C234.53 24.4206 231.146 24.8793 228.777 23.0731Z"/><path fill="#FFE91D" d="M376.681 23.0731L393.33 10.3751C395.699 8.56894 396.159 5.17811 394.354 2.80375C392.552 0.429395 389.169 -0.031924 386.8 1.77686L370.151 14.4723C367.782 16.281 367.322 19.6693 369.126 22.0462C370.929 24.4206 374.312 24.8793 376.681 23.0731Z"/><path fill="#FFE91D" d="M228.777 107.693L212.129 120.391C209.759 122.197 209.299 125.588 211.104 127.962C212.906 130.336 216.289 130.798 218.659 128.989L235.307 116.291C237.676 114.485 238.137 111.094 236.332 108.717C234.53 106.345 231.146 105.884 228.777 107.693Z"/><path fill="#FFE91D" d="M376.681 107.693L393.33 120.391C395.699 122.197 396.159 125.588 394.354 127.962C392.552 130.336 389.169 130.798 386.8 128.989L370.151 116.291C367.782 114.485 367.322 111.094 369.126 108.717C370.929 106.345 374.312 105.884 376.681 107.693Z"/><path fill="url(#paint17_linear)" d="M317.139 329.144C317.139 329.144 312.328 320.048 310.403 310.397C308.731 302.15 308.809 292.304 309.015 287.044C309.061 285.848 310.63 285.438 311.251 286.46C314.281 291.423 319.755 301.392 320.985 310.402C321.867 316.618 322.433 322.876 322.686 329.149L317.139 329.144Z"/><path fill="url(#paint18_linear)" d="M322.171 329.144C322.171 329.144 325.377 318.023 328.906 310.603C331.47 305.21 337.309 298.749 340.305 295.627C340.871 295.035 341.86 295.543 341.709 296.351C340.939 300.464 339.16 308.572 336.253 314.108C332.212 321.804 325.479 329.146 325.479 329.146H322.171V329.144Z"/><path fill="url(#paint19_linear)" d="M305.676 319.279C305.218 318.377 306.076 317.376 307.033 317.7C309.459 318.521 311.706 319.821 313.633 321.534C317.222 324.802 317.89 328.526 317.89 328.526L316.655 328.943C316.655 328.943 309.969 327.721 305.676 319.279Z"/><path fill="url(#paint20_linear)" d="M330.784 293.273C330.701 292.124 329.229 291.704 328.555 292.642C326.051 296.135 321.846 303.021 320.47 311.457C318.749 321.987 320.754 329.154 320.754 329.154H322.171C322.171 329.154 327.393 319.237 329.429 312.518C331.351 306.174 331.104 297.756 330.784 293.273Z"/><path fill="url(#paint21_linear)" d="M325.481 329.144C325.481 329.144 328.485 319.117 338.762 315.299C339.36 315.078 339.938 315.68 339.696 316.271C338.341 319.584 334.479 327.497 327.957 329.139L325.481 329.144Z"/><path fill="#5A328E" d="M334.578 327.447H310.791L313.844 351.871H331.525L334.578 327.447Z"/><path fill="#F1A34F" d="M309.002 346.549V350.054H309.953C310.416 350.054 310.791 350.43 310.791 350.894V351.034C310.791 351.498 310.416 351.874 309.953 351.874H269.367C268.831 351.874 268.391 351.438 268.391 350.896V345.848C268.391 345.308 268.828 344.87 269.367 344.87H309.953C310.416 344.87 310.791 345.246 310.791 345.71C310.791 346.174 310.416 346.549 309.953 346.549H309.002Z"/><path fill="#fff" d="M309.121 350.052H273.226C273.052 350.052 272.911 349.911 272.911 349.736V346.862C272.911 346.687 273.052 346.546 273.226 346.546H309.121V350.052Z"/><path fill="url(#paint22_linear)" d="M264.805 338.98V342.858H263.853C263.391 342.858 263.016 343.273 263.016 343.786V343.943C263.016 344.456 263.391 344.871 263.853 344.871H304.44C304.976 344.871 305.416 344.388 305.416 343.791V338.204C305.416 337.607 304.979 337.125 304.44 337.125H263.853C263.391 337.125 263.016 337.539 263.016 338.052C263.016 338.563 263.391 338.98 263.853 338.98H264.805Z"/><path fill="#fff" d="M264.683 342.858H300.545C300.737 342.858 300.893 342.702 300.893 342.509V339.327C300.893 339.134 300.737 338.978 300.545 338.978H264.683V342.858Z"/><path fill="#F1A34F" d="M305.73 333.528H266.886C266.574 333.528 266.321 333.275 266.321 332.962V327.802C266.321 327.489 266.574 327.236 266.886 327.236H305.73C306.042 327.236 306.294 327.489 306.294 327.802V332.962C306.294 333.278 306.042 333.528 305.73 333.528Z"/><path fill="#5A328E" d="M308.585 337.125H269.257C269.081 337.125 268.935 336.981 268.935 336.801V333.854C268.935 333.676 269.078 333.53 269.257 333.53H308.585C308.762 333.53 308.908 333.674 308.908 333.854V336.801C308.905 336.979 308.762 337.125 308.585 337.125Z"/><defs><linearGradient id="paint0_linear" x1="244.429" x2="297.933" y1="271.92" y2="271.92" gradientUnits="userSpaceOnUse"><stop stop-color="#A980F8"/><stop offset="1" stop-color="#8673E9"/></linearGradient><linearGradient id="paint1_linear" x1="400.906" x2="421.869" y1="242.158" y2="242.158" gradientUnits="userSpaceOnUse"><stop stop-color="#A980F8"/><stop offset="1" stop-color="#8673E9"/></linearGradient><linearGradient id="paint2_linear" x1="382.536" x2="435.352" y1="278.761" y2="278.761" gradientUnits="userSpaceOnUse"><stop stop-color="#A980F8"/><stop offset="1" stop-color="#8673E9"/></linearGradient><linearGradient id="paint3_linear" x1="194.595" x2="449.995" y1="358.623" y2="358.623" gradientUnits="userSpaceOnUse"><stop stop-color="#A980F8"/><stop offset="1" stop-color="#8673E9"/></linearGradient><linearGradient id="paint4_linear" x1="289.643" x2="357.63" y1="410.38" y2="410.38" gradientUnits="userSpaceOnUse"><stop stop-color="#A980F8"/><stop offset="1" stop-color="#8673E9"/></linearGradient><linearGradient id="paint5_linear" x1="286.959" x2="354.946" y1="410.38" y2="410.38" gradientUnits="userSpaceOnUse"><stop stop-color="#A980F8"/><stop offset="1" stop-color="#8673E9"/></linearGradient><linearGradient id="paint6_linear" x1="438.035" x2="500.927" y1="358.247" y2="358.247" gradientUnits="userSpaceOnUse"><stop stop-color="#A980F8"/><stop offset="1" stop-color="#8673E9"/></linearGradient><linearGradient id="paint7_linear" x1="493.661" x2="525.108" y1="351.556" y2="351.556" gradientUnits="userSpaceOnUse"><stop stop-color="#A980F8"/><stop offset="1" stop-color="#8673E9"/></linearGradient><linearGradient id="paint8_linear" x1="140.683" x2="203.576" y1="358.247" y2="358.247" gradientUnits="userSpaceOnUse"><stop stop-color="#A980F8"/><stop offset="1" stop-color="#8673E9"/></linearGradient><linearGradient id="paint9_linear" x1="116.503" x2="147.949" y1="351.556" y2="351.556" gradientUnits="userSpaceOnUse"><stop stop-color="#A980F8"/><stop offset="1" stop-color="#8673E9"/></linearGradient><linearGradient id="paint10_linear" x1="402.507" x2="494.932" y1="401.33" y2="401.33" gradientUnits="userSpaceOnUse"><stop stop-color="#8A3A77"/><stop offset="1" stop-color="#59275A"/></linearGradient><linearGradient id="paint11_linear" x1="422.698" x2="511.494" y1="402.029" y2="402.029" gradientUnits="userSpaceOnUse"><stop stop-color="#8A3A77"/><stop offset="1" stop-color="#59275A"/></linearGradient><linearGradient id="paint12_linear" x1="123.796" x2="171.8" y1="332.99" y2="332.99" gradientUnits="userSpaceOnUse"><stop stop-color="#8A3A77"/><stop offset="1" stop-color="#59275A"/></linearGradient><linearGradient id="paint13_linear" x1="128.122" x2="199.854" y1="370.842" y2="370.842" gradientUnits="userSpaceOnUse"><stop stop-color="#8A3A77"/><stop offset="1" stop-color="#59275A"/></linearGradient><linearGradient id="paint14_linear" x1="272.708" x2="333.817" y1="180.154" y2="180.154" gradientUnits="userSpaceOnUse"><stop stop-color="#8A3A77"/><stop offset="1" stop-color="#59275A"/></linearGradient><linearGradient id="paint15_linear" x1="272.708" x2="333.816" y1="171.297" y2="171.297" gradientUnits="userSpaceOnUse"><stop stop-color="#8A3A77"/><stop offset="1" stop-color="#59275A"/></linearGradient><linearGradient id="paint16_linear" x1="263.278" x2="343.245" y1="157.865" y2="157.865" gradientUnits="userSpaceOnUse"><stop stop-color="#8A3A77"/><stop offset="1" stop-color="#59275A"/></linearGradient><linearGradient id="paint17_linear" x1="308.906" x2="322.684" y1="307.516" y2="307.516" gradientUnits="userSpaceOnUse"><stop stop-color="#8A3A77"/><stop offset="1" stop-color="#59275A"/></linearGradient><linearGradient id="paint18_linear" x1="322.171" x2="341.725" y1="312.257" y2="312.257" gradientUnits="userSpaceOnUse"><stop stop-color="#8A3A77"/><stop offset="1" stop-color="#59275A"/></linearGradient><linearGradient id="paint19_linear" x1="305.547" x2="317.889" y1="323.289" y2="323.289" gradientUnits="userSpaceOnUse"><stop stop-color="#8A3A77"/><stop offset="1" stop-color="#59275A"/></linearGradient><linearGradient id="paint20_linear" x1="319.772" x2="331.003" y1="310.639" y2="310.639" gradientUnits="userSpaceOnUse"><stop stop-color="#8A3A77"/><stop offset="1" stop-color="#59275A"/></linearGradient><linearGradient id="paint21_linear" x1="325.481" x2="339.75" y1="322.2" y2="322.2" gradientUnits="userSpaceOnUse"><stop stop-color="#8A3A77"/><stop offset="1" stop-color="#59275A"/></linearGradient><linearGradient id="paint22_linear" x1="263.015" x2="305.413" y1="340.997" y2="340.997" gradientUnits="userSpaceOnUse"><stop stop-color="#8A3A77"/><stop offset="1" stop-color="#59275A"/></linearGradient></defs></svg>