<?xml version="1.0" standalone="no"?>
<!DOCTYPE svg PUBLIC "-//W3C//DTD SVG 20010904//EN"
 "http://www.w3.org/TR/2001/REC-SVG-20010904/DTD/svg10.dtd">
<svg version="1.0" xmlns="http://www.w3.org/2000/svg"
 width="1280.000000pt" height="1034.000000pt" viewBox="0 0 1280.000000 1034.000000"
 preserveAspectRatio="xMidYMid meet">
<metadata>
Created by potrace 1.16, written by Peter Selinger 2001-2019
</metadata>
<g transform="translate(0.000000,1034.000000) scale(0.100000,-0.100000)"
fill="#000000" stroke="none">
<path d="M0 7704 l0 -2635 58 6 c65 8 65 8 81 55 11 32 10 36 -13 53 -13 9
-35 26 -47 36 l-22 18 21 35 c12 19 30 42 40 51 17 16 21 15 61 -15 l43 -31
36 21 c21 12 36 28 36 36 -1 8 -5 39 -8 69 l-7 54 62 7 c33 4 63 6 65 3 2 -2
7 -27 11 -57 l8 -54 55 -12 c60 -14 58 -15 109 54 l19 26 41 -28 c65 -46 67
-50 32 -93 -17 -21 -31 -41 -31 -45 0 -5 12 -27 27 -49 l27 -41 52 7 c59 7 57
9 69 -77 l6 -46 -54 -7 c-53 -7 -55 -8 -61 -44 -3 -20 -8 -48 -12 -62 -5 -21
1 -30 35 -53 23 -16 41 -32 41 -35 0 -4 -10 -20 -22 -35 -13 -16 -30 -38 -39
-49 -16 -20 -17 -20 -61 16 l-46 38 -36 -22 c-38 -22 -39 -27 -27 -100 l7 -47
-44 -6 c-85 -12 -92 -10 -93 27 -2 68 -10 79 -72 94 l-58 15 -22 -28 c-12 -15
-27 -35 -33 -43 -10 -12 -19 -9 -63 23 -54 40 -54 39 -9 97 l28 37 -23 42 -22
42 -62 -6 -62 -6 -6 47 c-3 27 -8 55 -9 63 -2 8 -4 -1125 -5 -2517 l-1 -2533
2423 1 c2216 2 2381 3 1942 14 -1760 47 -3046 133 -3625 245 -181 35 -300 83
-300 120 0 49 218 116 492 151 81 10 98 15 98 30 0 14 -65 371 -125 689 -68
362 -68 358 -5 371 64 13 252 29 342 29 l88 0 0 173 0 174 -50 82 c-102 168
-224 305 -410 460 -202 168 -349 326 -388 414 -7 15 -12 44 -12 63 0 73 99
125 197 104 164 -35 361 -248 514 -552 54 -106 64 -130 115 -278 l33 -95 0
446 c1 339 -2 452 -12 470 -68 131 -210 296 -370 431 -349 295 -508 504 -464
611 31 73 149 89 258 35 77 -38 251 -205 246 -235 -2 -10 -7 -31 -12 -46 -4
-16 -2 -47 5 -75 14 -51 58 -142 69 -142 3 0 22 -15 41 -33 19 -18 55 -39 80
-47 41 -12 47 -18 62 -59 9 -25 27 -77 41 -116 14 -38 32 -92 40 -120 15 -49
15 -46 16 125 1 174 1 175 24 176 12 1 29 4 37 5 13 4 16 -45 20 -376 l5 -380
34 95 c62 176 196 421 290 530 l31 35 -7 -236 -6 -236 -116 -120 c-64 -65
-143 -157 -174 -204 l-57 -86 0 -369 1 -369 49 144 c26 79 75 197 109 262 57
113 160 279 172 279 6 0 5 -11 -11 -289 l-10 -174 -73 -76 c-140 -147 -237
-294 -237 -360 l0 -39 130 -4 c71 -2 131 -6 133 -8 2 -3 0 -52 -4 -110 -20
-301 -39 -570 -43 -611 l-5 -46 52 -7 c29 -3 94 -6 146 -6 l94 0 -7 -38 c-3
-20 -6 -46 -6 -58 0 -17 -11 -23 -72 -37 -40 -10 -92 -17 -114 -17 -45 0 -79
-24 -55 -40 10 -5 10 -9 1 -12 -8 -2 -11 -40 -11 -128 1 -175 4 -186 49 -193
55 -9 93 -16 137 -27 22 -5 54 -12 70 -14 17 -3 57 -9 90 -15 33 -6 103 -12
155 -14 91 -4 96 -3 119 21 20 22 23 33 19 79 -3 32 -12 61 -23 73 -23 25
-135 80 -164 80 -11 0 -39 -16 -61 -36 -24 -22 -46 -34 -55 -30 -24 9 -18 25
24 67 49 49 25 51 -29 2 -29 -25 -44 -33 -51 -26 -19 19 -5 47 43 83 26 19 45
36 43 38 -6 7 -49 -20 -82 -51 -31 -29 -63 -32 -63 -6 0 18 78 89 98 89 16 1
16 2 0 14 -10 7 -18 16 -18 20 0 4 13 -3 29 -15 36 -26 86 -27 422 -5 123 8
301 18 394 22 94 4 173 9 178 10 4 1 22 2 40 3 l32 2 -30 16 c-80 41 -240 144
-330 211 -186 139 -497 481 -538 592 -7 18 3 84 37 250 115 558 157 886 226
1750 11 140 25 302 30 360 6 58 10 124 10 148 0 23 4 42 8 42 5 0 13 -19 19
-42 6 -24 40 -151 76 -283 201 -738 272 -1062 317 -1460 23 -204 72 -626 95
-820 9 -71 20 -168 25 -215 27 -260 43 -376 52 -381 11 -7 287 -23 293 -17 2
2 11 118 21 258 14 193 18 384 18 790 1 627 0 642 -129 1700 -27 223 -34 283
-50 420 -8 74 -17 145 -20 157 -3 12 0 23 7 25 16 6 18 19 29 253 5 116 11
215 13 220 2 6 73 50 157 99 85 50 219 128 299 174 80 47 161 94 180 105 74
41 275 160 283 167 4 4 -2 23 -13 43 -20 33 -20 38 -5 43 9 4 34 0 56 -9 44
-18 47 -14 19 28 -41 62 -10 86 59 44 18 -11 35 -18 38 -15 3 2 -11 26 -31 52
-40 52 -48 94 -17 94 10 0 42 -15 70 -34 36 -25 48 -29 41 -16 -6 10 -10 28
-10 40 0 19 4 21 28 16 15 -4 54 -21 88 -38 l60 -30 127 76 c70 42 129 76 131
76 3 0 40 21 83 46 43 26 94 56 113 67 34 19 156 90 390 227 63 37 130 75 148
84 17 9 32 21 32 27 0 6 -32 66 -71 133 -39 66 -89 153 -112 191 -22 39 -55
94 -74 123 l-34 53 -32 -19 c-18 -11 -88 -52 -157 -92 -69 -40 -177 -103 -240
-140 -63 -37 -131 -76 -150 -87 -19 -10 -46 -26 -60 -34 -14 -9 -117 -69 -230
-134 -113 -65 -257 -148 -320 -185 -284 -167 -343 -200 -357 -200 -8 0 -33 10
-55 22 -32 18 -48 39 -79 100 -131 261 -258 702 -294 1023 -7 58 -46 145 -65
145 -5 0 -12 9 -15 20 -3 11 -12 20 -19 20 -8 0 -20 7 -27 16 -28 33 -196 126
-269 149 -14 4 -29 11 -35 15 -5 4 -25 12 -43 18 -30 10 -34 9 -65 -22 -91
-93 -190 -86 -269 19 -20 27 -34 52 -29 55 5 3 11 31 15 62 7 57 7 58 -34 100
-39 41 -92 137 -106 193 -4 15 -14 29 -23 32 -71 22 -103 71 -105 159 -1 69
19 104 61 104 21 0 23 -4 23 -50 0 -52 -8 -60 -34 -35 -19 19 -27 19 -20 0 3
-8 14 -17 23 -20 10 -3 24 -17 31 -31 9 -16 21 -24 33 -22 18 3 20 11 18 110
-2 105 -2 107 27 136 16 16 34 49 41 73 20 78 59 103 160 103 57 0 75 -5 117
-29 46 -28 55 -30 139 -28 85 2 91 1 117 -24 23 -22 28 -35 28 -77 0 -28 8
-70 17 -94 14 -38 15 -54 5 -111 -7 -36 -15 -76 -18 -88 -5 -20 -2 -23 19 -23
27 0 30 6 42 107 6 47 9 52 33 55 35 4 53 64 55 183 2 72 -2 97 -15 118 -10
14 -18 28 -18 31 0 10 151 76 241 105 176 58 272 73 519 78 194 4 243 2 358
-16 167 -26 312 -60 312 -72 0 -6 -24 -40 -54 -77 -123 -154 -176 -278 -176
-411 0 -94 28 -160 94 -225 27 -26 46 -53 46 -66 0 -28 29 -91 50 -107 28 -23
100 -42 134 -36 18 3 46 16 60 30 l27 25 126 -13 c245 -24 553 0 920 72 l161
32 54 -45 c118 -101 370 -246 518 -298 70 -26 128 -58 80 -45 l-25 6 24 -21
25 -21 -26 6 c-23 6 -28 3 -39 -29 -7 -19 -19 -38 -26 -40 -12 -5 -41 40 -65
97 -4 10 -12 15 -18 12 -6 -4 -9 -1 -8 7 2 7 -3 13 -11 13 -8 0 -30 -29 -49
-64 -34 -61 -35 -64 -17 -77 10 -8 14 -14 8 -14 -7 0 -14 -8 -17 -17 -4 -14
-4 -14 -3 2 2 20 -38 70 -46 57 -2 -4 -2 -1 0 7 6 24 -48 111 -70 111 -10 0
-32 11 -48 25 -112 94 -270 -25 -211 -159 15 -33 30 -48 64 -65 l44 -21 63
-318 c143 -723 231 -1172 231 -1183 0 -5 -76 -9 -169 -9 -97 0 -181 -5 -200
-11 -52 -18 -61 -50 -61 -207 0 -125 2 -142 20 -165 11 -14 30 -29 42 -32 19
-7 19 -8 -9 -22 -17 -8 -35 -25 -42 -39 -14 -32 -15 -288 0 -315 5 -11 25 -29
42 -39 22 -14 27 -20 14 -20 -10 0 -29 -12 -42 -26 -20 -22 -25 -37 -25 -83
l0 -56 -179 0 c-176 0 -180 0 -205 -24 -41 -39 -42 -36 65 -431 15 -58 35
-132 44 -165 10 -33 30 -109 45 -170 32 -121 68 -258 102 -378 15 -58 25 -77
37 -76 9 1 207 0 441 -1 409 -2 421 -3 315 -16 -135 -16 -287 -54 -337 -84
-49 -29 -113 -152 -326 -630 -33 -74 -81 -184 -107 -245 -26 -60 -55 -128 -65
-150 -38 -84 -123 -281 -245 -570 -70 -165 -147 -347 -171 -404 l-45 -105 28
-23 c38 -31 206 -113 247 -120 30 -5 35 -1 56 33 12 22 96 164 186 317 90 152
189 318 219 368 30 50 55 92 55 94 0 5 220 361 286 462 92 141 159 268 190
357 31 93 24 88 127 102 41 5 47 4 47 -11 0 -78 198 -840 341 -1315 126 -417
107 -380 193 -380 79 0 184 31 215 64 18 19 24 41 31 112 8 91 -2 370 -20 549
-6 55 -19 190 -31 300 -11 110 -24 227 -29 260 -6 33 -10 63 -10 68 0 4 149 7
330 7 l330 0 0 -715 c0 -685 -1 -717 -19 -753 -43 -83 -146 -146 -267 -163
-35 -5 -82 -18 -103 -28 -67 -35 -131 -126 -131 -187 l0 -24 654 0 653 0 -7
37 c-10 56 -46 119 -82 146 -43 31 -79 44 -156 56 -130 20 -234 93 -266 186
-14 43 -16 125 -16 747 l0 698 523 1 c656 1 603 -2 599 27 -5 31 -65 145 -97
184 -59 70 -170 139 -266 165 -19 6 -136 8 -261 6 -126 -2 -228 0 -228 4 0 5
20 16 44 26 59 24 118 90 147 163 21 53 23 75 23 204 0 89 -5 153 -12 166 -7
13 -7 25 -2 30 5 5 18 56 29 114 10 58 22 119 25 135 4 17 9 55 12 85 3 30 10
68 15 85 19 58 64 785 58 920 -4 68 35 299 58 352 12 27 17 67 18 138 0 87 -3
106 -24 144 -13 25 -28 50 -35 56 -80 78 -466 269 -466 230 0 -7 -25 -36 -55
-64 -82 -74 -154 -81 -228 -20 -31 26 -37 36 -37 70 0 37 -2 40 -22 34 -47
-13 -289 -135 -345 -173 -62 -42 -133 -114 -133 -134 0 -16 -100 -260 -111
-273 -5 -5 -9 4 -9 22 0 34 -32 80 -64 93 -20 8 -20 8 5 18 52 21 59 43 59
199 l0 143 -29 32 -29 33 -141 3 c-78 2 -141 6 -141 8 0 3 22 116 49 252 27
136 79 400 116 587 36 187 80 414 97 504 24 119 36 164 48 168 62 19 104 55
122 105 2 4 55 18 118 32 63 13 184 47 267 75 296 98 803 216 819 190 9 -16
69 -10 107 10 58 29 321 45 625 38 247 -6 370 -19 577 -58 l111 -21 -4 -94
c-8 -177 36 -224 242 -259 134 -23 126 -26 126 49 0 62 -1 65 -32 85 -39 23
-49 38 -83 122 -35 88 -55 194 -55 297 0 103 8 152 24 152 6 0 27 5 46 10 29
8 39 17 49 47 34 94 33 94 45 23 l11 -65 60 -3 c94 -5 99 -2 116 70 l15 63 14
-57 c7 -31 16 -62 20 -68 5 -8 37 -13 86 -14 l79 -1 3 48 c4 58 18 53 28 -8 5
-36 11 -46 30 -51 26 -7 27 -15 24 -153 -1 -61 0 -63 20 -58 16 4 20 2 16 -9
-3 -8 1 -14 8 -14 8 0 17 -6 19 -12 3 -7 3 2 0 20 -3 18 -2 32 3 31 20 -3 37
1 30 8 -11 11 -30 10 -38 -1 -12 -18 -20 2 -9 22 6 12 11 30 11 41 0 30 34 27
50 -5 27 -49 9 -139 -39 -194 -12 -14 -27 -33 -34 -44 -12 -17 -15 -17 -30 -2
-15 15 -18 11 -48 -50 -18 -38 -54 -91 -84 -121 -51 -53 -53 -58 -57 -117 l-3
-61 111 -5 c77 -3 117 -10 130 -20 283 -222 449 -433 565 -720 82 -205 119
-408 119 -656 0 -183 -11 -288 -46 -461 -60 -299 -164 -586 -331 -918 -82
-162 -75 -168 -98 75 -22 227 -23 234 -48 246 -27 11 -33 46 -12 64 20 17 19
30 -3 30 -10 0 -27 7 -40 15 -17 12 -27 13 -44 5 -21 -10 -21 -10 -5 3 9 8 17
21 17 30 0 9 5 19 10 22 17 10 11 23 -14 29 -47 12 -43 64 7 89 28 14 29 16
10 16 -39 1 -27 36 27 84 l51 44 -11 159 c-11 148 -8 342 6 509 4 51 2 83 -10
116 -52 151 -52 525 -1 804 9 44 18 103 21 130 l5 50 -54 33 c-30 17 -60 32
-66 32 -6 0 -11 4 -11 8 0 5 -10 13 -22 19 -20 9 -26 4 -62 -51 -55 -85 -150
-176 -218 -209 -133 -63 -297 -19 -430 117 -38 38 -68 73 -68 78 0 6 -11 23
-24 39 -13 15 -26 33 -28 39 -8 24 -174 -70 -171 -97 1 -10 9 -79 18 -153 22
-168 26 -522 7 -630 -7 -41 -26 -115 -42 -165 -28 -86 -29 -100 -34 -310 -3
-122 -11 -262 -20 -315 -25 -163 -56 -334 -66 -369 -5 -19 -6 -39 -1 -45 8
-11 -7 -113 -79 -541 -74 -434 -128 -710 -195 -992 l-27 -112 34 -30 c45 -42
153 -97 222 -115 69 -18 120 -13 236 22 121 37 198 35 375 -12 159 -43 215
-44 360 -7 91 24 128 26 189 10 l44 -11 6 -136 c4 -76 11 -207 17 -292 20
-326 27 -683 18 -984 l-8 -309 30 -38 c44 -56 270 -270 279 -264 4 3 -3 38
-16 77 -13 40 -41 129 -64 198 -22 69 -40 130 -40 137 0 32 45 41 247 52 112
6 250 11 308 11 l105 0 0 71 c0 69 -1 71 -22 64 -13 -4 -45 -13 -73 -21 -114
-34 -249 23 -393 163 -62 61 -132 143 -132 156 0 5 113 23 205 32 142 15 290
-37 370 -128 l45 -52 0 218 0 218 -37 -8 c-161 -34 -310 38 -473 229 -38 46
-69 88 -67 93 2 6 39 15 83 22 197 29 348 0 448 -87 18 -17 36 -30 40 -30 3 0
6 44 6 98 l0 99 -34 24 c-48 35 -82 78 -107 140 -34 81 -32 248 5 384 15 55
31 104 36 109 12 12 108 -90 170 -182 110 -163 117 -318 20 -441 -36 -45 -40
-56 -40 -106 0 -30 2 -55 4 -55 3 0 27 22 55 49 41 40 65 53 138 77 82 27 98
29 241 28 92 0 156 -4 163 -11 7 -7 -8 -34 -50 -91 -160 -212 -324 -290 -486
-233 -32 12 -61 21 -62 21 -2 0 -3 -80 -3 -177 l0 -178 36 53 c70 104 209 165
421 185 67 6 125 8 128 5 9 -9 -51 -123 -100 -193 -51 -72 -114 -132 -179
-170 -63 -37 -178 -46 -252 -21 -26 9 -49 16 -51 16 -2 0 -3 -83 -3 -185 l0
-185 108 0 c174 0 495 -19 525 -31 17 -7 27 -19 27 -31 0 -16 -80 -270 -235
-743 -15 -47 -15 -47 66 -65 31 -7 81 -24 110 -39 233 -113 -285 -221 -1491
-310 -595 -44 -1482 -82 -2545 -110 -184 -5 552 -8 1903 -9 l2202 -2 0 5170 0
5170 -6400 0 -6400 0 0 -2636z m6510 2276 c0 -5 -19 -11 -42 -12 -37 -1 -39
-2 -10 -5 17 -2 32 -6 32 -8 0 -15 -15 -35 -26 -35 -7 0 -18 -9 -24 -20 -6
-11 -17 -20 -25 -20 -8 0 -15 -5 -15 -11 0 -7 -13 -9 -37 -4 -21 4 -88 10
-149 13 l-111 7 14 33 c11 27 18 32 46 32 17 0 52 5 77 11 40 9 166 24 243 28
15 0 27 -3 27 -9z m-486 -85 c-11 -8 -14 -15 -6 -15 6 0 12 -6 12 -13 0 -7 6
-21 13 -31 12 -16 27 -18 108 -17 66 1 89 -2 79 -9 -8 -5 -24 -10 -34 -10 -11
0 -17 -3 -13 -6 3 -4 -26 -22 -66 -41 -39 -19 -74 -38 -77 -42 -3 -5 -48 -13
-101 -20 -52 -6 -122 -20 -155 -31 -75 -25 -74 -25 -74 5 0 32 29 105 42 105
5 0 8 6 6 12 -7 19 31 44 113 77 103 40 131 49 153 50 20 1 20 1 0 -14z
m-2605 -724 c19 -10 49 -34 65 -55 27 -33 31 -47 34 -110 5 -87 -16 -137 -75
-182 -33 -25 -48 -29 -113 -32 -69 -3 -79 -1 -123 27 -26 17 -52 42 -59 56 -6
14 -14 25 -17 25 -9 0 -13 108 -6 153 10 55 77 122 136 135 54 13 113 6 158
-17z m6484 -587 c30 -22 57 -81 57 -124 0 -17 -19 -66 -42 -110 l-43 -80 -56
0 -56 0 -41 83 c-47 94 -53 142 -22 191 18 29 38 45 80 60 28 10 97 -1 123
-20z m-5108 -415 c309 -121 612 -296 898 -518 53 -42 97 -78 97 -81 0 -7 -278
-56 -430 -76 -136 -18 -502 -25 -582 -11 -41 7 -48 12 -48 31 0 42 -49 102
-99 120 -60 21 -69 21 -124 -8 -41 -20 -49 -22 -67 -9 -37 26 -63 93 -62 158
1 121 67 245 229 435 21 24 29 22 188 -41z m7580 -701 c39 -10 45 -16 41 -33
-20 -84 -19 -88 34 -123 l50 -32 40 25 c22 14 42 25 44 25 5 0 66 -92 66 -100
0 -4 -20 -21 -43 -38 l-44 -31 11 -51 c10 -48 12 -51 48 -56 63 -11 69 -20 55
-84 -14 -60 -9 -57 -92 -45 -38 5 -42 3 -74 -36 -26 -32 -32 -45 -25 -58 6 -9
20 -32 32 -53 l23 -36 -43 -29 c-24 -16 -48 -32 -55 -36 -7 -5 -24 13 -45 48
-33 55 -33 55 -78 53 l-45 -3 -15 -58 c-9 -35 -19 -56 -26 -53 -6 2 -32 8 -58
11 -25 4 -48 11 -51 15 -3 5 0 32 6 60 11 51 11 53 -17 76 -16 13 -33 23 -37
24 -5 0 -28 -13 -52 -30 -24 -16 -47 -30 -52 -30 -4 0 -22 23 -40 52 l-31 52
50 31 c47 29 49 32 43 65 -11 66 -14 68 -70 80 -61 13 -61 13 -43 90 10 45 14
51 32 46 12 -3 37 -9 57 -12 33 -6 38 -3 57 27 12 19 27 41 34 51 10 13 6 24
-20 64 -17 26 -29 51 -26 55 2 4 26 21 54 38 l49 30 30 -49 c31 -51 46 -58 98
-44 17 5 25 18 34 60 14 60 18 62 94 42z m-5962 -444 c9 23 24 20 30 -6 6 -21
5 -22 -7 -5 -13 16 -14 16 -19 -4 -6 -23 40 -109 59 -109 6 0 28 32 48 70 21
39 41 70 47 70 5 0 17 -16 26 -35 9 -19 20 -32 25 -29 4 3 5 -2 2 -11 -7 -17
14 -48 27 -39 5 3 6 -2 3 -11 -10 -25 18 -14 38 15 10 14 16 30 13 37 -2 7 1
15 7 19 7 5 8 2 3 -6 -5 -8 -4 -11 3 -6 6 3 13 20 17 36 9 40 23 46 37 16 7
-16 19 -26 32 -26 17 0 18 -2 6 -10 -13 -8 -12 -15 6 -47 12 -21 28 -38 35
-38 21 0 65 85 49 95 -16 10 35 23 58 15 10 -3 28 -29 42 -58 14 -29 32 -52
40 -52 8 0 28 24 43 53 39 73 65 72 102 -3 14 -30 30 -55 33 -55 22 1 66 65
58 85 -6 17 49 28 75 15 10 -6 18 -14 17 -18 -1 -4 4 -19 10 -34 8 -19 16 -26
27 -22 8 3 15 1 15 -6 0 -6 -4 -8 -10 -5 -5 3 -10 1 -10 -4 0 -6 5 -11 10 -11
6 0 10 -9 10 -20 0 -20 -69 -380 -95 -500 -14 -61 -185 -928 -190 -960 -2 -13
-51 -15 -367 -18 l-365 -2 -12 42 c-10 40 -41 195 -136 688 -20 102 -42 217
-51 255 -69 326 -107 561 -87 542 7 -8 47 43 63 84 16 38 23 37 40 -6 7 -19
16 -32 19 -30 6 7 51 -36 51 -49 0 -6 -9 0 -20 14 -13 16 -20 20 -19 10 0 -18
23 -50 35 -50 10 0 49 55 60 85 4 11 14 31 22 43 l15 24 12 -22 c10 -19 13
-20 18 -6z m6114 -586 c4 -7 6 -23 4 -35 -1 -16 3 -23 13 -23 9 0 16 -5 16
-11 0 -7 7 -8 18 -4 9 4 22 9 29 12 6 2 17 -5 23 -17 9 -17 8 -24 -9 -38 -27
-22 -18 -58 16 -67 17 -4 23 -11 19 -21 -3 -9 -6 -20 -6 -25 0 -5 -13 -9 -29
-9 -39 0 -57 -23 -43 -54 9 -20 7 -27 -9 -42 -19 -17 -21 -17 -42 10 -24 30
-51 28 -60 -5 -3 -13 -14 -19 -31 -19 -22 0 -26 5 -26 28 0 40 -16 53 -47 39
-21 -9 -27 -8 -40 8 -12 18 -12 21 6 34 30 19 26 49 -6 63 -16 7 -29 13 -31
14 -2 1 0 13 3 27 6 22 11 25 33 21 37 -7 60 28 41 63 -11 20 -10 25 7 38 26
19 32 19 39 -5 10 -30 53 -27 61 5 7 27 37 34 51 13z m-11647 -622 c0 -34 45
-45 68 -16 16 19 19 20 40 5 20 -15 21 -18 8 -37 -21 -30 -4 -58 34 -58 27 0
30 -3 30 -30 0 -25 -4 -30 -24 -30 -33 0 -43 -48 -15 -70 18 -14 18 -17 3 -38
-14 -20 -17 -21 -35 -8 -11 7 -29 11 -40 9 -16 -4 -20 -13 -17 -37 3 -27 0
-31 -24 -34 -24 -3 -28 0 -28 21 0 36 -64 54 -76 22 -7 -18 -14 -18 -37 -1
-15 12 -17 18 -7 36 17 33 4 60 -31 60 -16 0 -29 4 -29 9 0 5 -3 16 -6 24 -4
11 4 17 25 22 35 8 43 39 14 60 -10 7 -14 19 -10 29 9 22 37 32 47 16 4 -7 16
-9 29 -5 16 5 21 14 21 41 0 31 2 34 30 34 25 0 30 -4 30 -24z m2456 -287 c31
-39 54 -72 52 -74 -11 -10 -111 -65 -118 -65 -11 0 -14 193 -3 203 10 10 8 12
69 -64z m-1709 -243 c24 -21 28 -32 31 -96 7 -111 -25 -236 -118 -460 -64
-156 -87 -225 -109 -335 -15 -75 -21 -89 -47 -106 -42 -27 -50 -24 -64 24 -17
62 -25 395 -11 502 24 187 93 386 154 443 59 55 120 66 164 28z m1403 -361 c0
-14 -4 -25 -8 -25 -4 0 -29 -13 -55 -30 l-48 -30 17 -27 c36 -58 108 -122 155
-139 92 -33 115 -74 51 -89 -17 -3 -38 -15 -48 -26 -9 -10 -25 -19 -35 -19
-10 0 -21 -9 -24 -20 -3 -11 -10 -20 -15 -20 -5 0 -20 -11 -34 -25 -35 -34
-70 -32 -157 12 -53 26 -95 59 -155 119 -45 45 -85 91 -89 103 -5 16 4 31 34
63 22 24 49 54 59 68 18 22 22 23 46 12 52 -24 101 -12 141 34 19 23 111 62
148 63 12 1 17 -7 17 -24z m-2082 -225 c92 -42 204 -174 285 -335 65 -131 64
-126 13 -154 l-44 -24 -83 74 c-298 264 -385 398 -289 446 35 18 68 16 118 -7z
m6607 -657 c-4 -32 -10 -78 -14 -103 l-6 -45 -171 -85 c-94 -47 -197 -96 -228
-109 -48 -20 -56 -27 -56 -50 0 -27 30 -91 81 -172 l30 -47 42 13 c23 8 82 27
131 45 49 17 91 29 94 26 3 -3 -1 -31 -7 -63 -15 -70 -19 -94 -20 -111 -1 -10
-78 -12 -368 -10 l-366 3 -8 25 c-4 14 -19 65 -34 113 -15 49 -26 90 -24 92 2
1 60 22 129 45 182 62 343 126 444 178 67 34 111 67 180 133 50 48 107 108
126 133 19 25 39 45 44 46 5 0 5 -25 1 -57z"/>
<path d="M3265 9118 c-89 -51 -105 -165 -32 -229 76 -66 203 -24 221 73 19
105 -102 205 -189 156z m132 -63 c30 -34 31 -93 2 -129 -11 -14 -28 -26 -38
-26 -9 0 -22 -5 -29 -12 -9 -9 -15 -9 -24 0 -7 7 -20 12 -29 12 -10 0 -27 12
-38 26 -39 49 -21 132 33 155 37 16 99 3 123 -26z"/>
<path d="M12224 7180 c-83 -33 -85 -166 -4 -214 100 -59 213 46 170 158 -19
52 -106 81 -166 56z"/>
<path d="M8061 6713 c-30 -6 -89 -43 -115 -72 -16 -17 -31 -21 -80 -21 -72 0
-103 -14 -128 -56 -14 -25 -16 -37 -7 -69 10 -36 9 -57 -7 -161 -5 -37 -2 -45
26 -78 18 -20 38 -36 44 -36 9 0 11 -17 8 -58 -4 -51 12 -138 44 -254 4 -13 0
-15 -18 -11 -22 4 -22 4 -4 -11 11 -9 24 -16 28 -16 5 0 4 -10 -3 -22 -9 -18
-9 -20 4 -15 11 4 19 -6 30 -38 24 -68 120 -207 169 -241 68 -50 112 -64 197
-64 106 0 161 20 212 78 51 58 83 120 104 200 14 57 14 70 0 150 -25 147 -20
173 40 208 17 9 17 15 7 69 -15 72 -55 176 -90 227 -15 24 -30 67 -38 116 -19
107 -28 113 -158 110 l-101 -3 -48 38 c-47 35 -63 40 -116 30z m313 -382 c14
-13 28 -36 31 -52 4 -16 24 -43 45 -61 l39 -33 6 -181 7 -180 -65 4 c-63 4
-157 -16 -181 -39 -6 -5 -33 -9 -60 -9 -80 0 -168 -18 -197 -39 l-27 -20 -31
65 c-17 36 -41 99 -53 140 -19 65 -21 80 -10 119 7 27 9 68 6 100 -6 50 -5 56
22 83 22 22 45 32 93 40 35 7 90 26 124 46 78 43 88 45 164 42 50 -1 67 -7 87
-25z m42 -596 c36 -55 -12 -113 -118 -141 -72 -19 -125 -17 -175 6 -37 16 -43
23 -43 49 0 41 33 69 89 76 25 3 66 12 91 19 25 8 66 15 92 15 40 1 50 -3 64
-24z"/>
<path d="M5905 6619 c-127 -14 -128 -15 -121 -52 6 -31 70 -137 82 -137 7 0
26 22 105 123 68 87 74 81 -66 66z"/>
<path d="M398 5173 c-37 -6 -74 -44 -89 -91 -16 -54 10 -109 64 -136 102 -49
210 56 162 157 -25 54 -74 79 -137 70z"/>
<path d="M4705 800 c-31 -12 -67 -56 -63 -77 3 -19 85 -78 150 -110 21 -10 38
-21 38 -25 0 -5 4 -8 10 -8 13 0 114 -62 118 -72 2 -4 9 -8 15 -8 7 0 50 -23
97 -51 47 -28 96 -56 110 -63 14 -6 47 -24 73 -40 l48 -28 19 22 c10 12 38 51
62 88 23 37 48 73 55 80 7 7 18 31 24 52 15 51 0 71 -75 94 -69 22 -96 42 -96
70 0 13 -10 35 -23 49 -19 23 -29 26 -75 24 -42 -2 -51 -5 -46 -17 20 -53 27
-110 14 -125 -18 -21 -32 -6 -37 41 -2 20 -11 46 -20 58 -14 20 -15 20 -8 1 4
-11 10 -42 13 -68 5 -47 4 -49 -19 -45 -18 2 -23 8 -21 24 3 21 -26 100 -33
92 -3 -2 -1 -18 3 -34 12 -45 4 -86 -16 -82 -9 2 -18 10 -19 18 -9 74 -15 87
-42 103 -17 10 -58 20 -93 22 -58 5 -87 9 -128 20 -8 2 -24 0 -35 -5z"/>
<path d="M11165 763 c-38 -7 -90 -15 -115 -16 -38 -2 -45 -6 -51 -27 -11 -39
-10 -123 3 -225 l11 -94 71 -15 c185 -39 375 -60 456 -51 55 6 60 9 68 38 24
81 -4 141 -76 167 -23 9 -47 21 -54 28 -23 23 -63 13 -98 -23 -19 -19 -43 -35
-52 -35 -31 0 -20 36 22 74 22 20 34 36 27 36 -7 0 -33 -18 -57 -40 -49 -45
-58 -48 -67 -23 -5 12 9 30 46 65 29 26 49 48 44 48 -14 0 -60 -34 -80 -59
-19 -23 -53 -25 -53 -2 0 17 51 71 82 87 l30 15 -29 25 c-45 40 -54 42 -128
27z"/>
<path d="M9930 724 c-43 -31 -47 -40 -21 -49 22 -7 71 -64 71 -82 0 -27 -31
-19 -68 18 -22 21 -46 39 -54 39 -7 0 2 -10 19 -22 27 -20 63 -66 63 -81 0 -3
-6 -7 -14 -10 -8 -3 -31 11 -54 34 -51 50 -72 51 -26 2 34 -37 40 -63 17 -70
-6 -2 -28 15 -50 37 -34 38 -41 41 -73 36 -19 -3 -62 -19 -94 -36 -32 -16 -67
-30 -76 -30 -10 0 -32 -13 -49 -29 -39 -37 -44 -93 -8 -113 34 -19 739 -8 760
11 4 4 6 79 5 167 l-3 159 -50 0 c-27 0 -72 -4 -100 -8 -47 -7 -52 -6 -83 23
-40 36 -65 37 -112 4z"/>
<path d="M3265 700 c-42 -33 -68 -36 -136 -16 -64 20 -96 11 -105 -28 -10 -41
-8 -256 3 -266 11 -11 322 -31 560 -37 l191 -5 18 27 c16 24 16 30 3 53 -8 14
-21 28 -29 32 -134 67 -172 82 -211 87 -44 5 -48 4 -75 -31 -30 -37 -64 -48
-64 -20 0 9 17 34 39 55 21 22 32 39 25 39 -8 0 -31 -18 -53 -40 -44 -46 -61
-50 -61 -16 0 16 14 37 43 61 23 20 33 33 22 29 -11 -4 -34 -23 -51 -42 -21
-24 -36 -33 -47 -29 -9 3 -17 10 -17 15 0 16 42 64 72 82 l29 18 -51 31 c-27
17 -54 31 -59 31 -4 0 -25 -13 -46 -30z"/>
<path d="M7169 686 c-13 -7 -37 -20 -52 -31 l-28 -18 28 -17 c16 -9 37 -33 48
-54 17 -32 18 -38 5 -46 -11 -8 -22 -1 -44 25 -15 20 -38 41 -50 47 -17 9 -16
6 5 -14 37 -34 62 -75 54 -88 -11 -18 -25 -11 -64 30 -21 22 -43 40 -48 40 -6
0 4 -15 23 -34 35 -35 45 -76 19 -76 -8 0 -30 16 -48 37 -42 45 -74 46 -160 5
-34 -16 -74 -32 -88 -36 -61 -14 -98 -87 -66 -130 12 -17 33 -19 213 -23 109
-2 280 0 379 4 l180 8 4 25 c3 14 5 84 5 156 1 153 -6 170 -64 159 -19 -4 -61
-10 -93 -14 -50 -6 -60 -4 -68 11 -5 10 -22 24 -38 32 -23 12 -32 13 -52 2z"/>
</g>
</svg>
