<svg xmlns="http://www.w3.org/2000/svg" viewBox="0 0 418.96 140.49"><title>logo</title><g id="Layer_2" data-name="Layer 2"><g id="Layer_1-2" data-name="Layer 1"><g id="Group_23" data-name="Group 23"><g id="Develop_Nurture_Sustain" data-name="Develop Nurture Sustain" style="isolation:isolate"><text transform="translate(0 127.8)" font-size="47" fill="#8e8e8e" font-family="GillSansMT-Condensed, Gill Sans MT Condensed" style="isolation:isolate">Develop | Nu<tspan x="196.17" y="0" letter-spacing="0.02em">r</tspan><tspan x="209.09" y="0">ture | Sustain</tspan></text></g><g id="Group_20" data-name="Group 20"><g id="Group_19" data-name="Group 19"><path id="Path_5" data-name="Path 5" d="M8.61,73.14V1.37H23.83V73.14Z" fill="#c33427"/><path id="Path_6" data-name="Path 6" d="M83.81,71.84H39.24V2.29H82.08V14.37H55V29.64H81.06l-.2,12.09H55V59.66h28.8Z" fill="#c33427"/><path id="Path_7" data-name="Path 7" d="M156.89,36.57q0,17.72-10.45,27.14t-30.16,9.43h-21V1.37h23.33q18.19,0,28.25,9.28T156.89,36.57ZM140.52,37q0-23.13-21.14-23.12H111V60.57h6.76q22.77,0,22.77-23.61Z" fill="#c33427"/><path id="Path_8" data-name="Path 8" d="M197.11,13q-8.79,0-13.61,6.46t-4.83,18q0,24,18.43,24,7.74,0,18.73-3.78V70.44a53.35,53.35,0,0,1-20.18,3.68q-16,0-24.51-9.5t-8.48-27.27a43.71,43.71,0,0,1,4.17-19.61,29.64,29.64,0,0,1,12-12.91A36.15,36.15,0,0,1,197.11.34,50.2,50.2,0,0,1,218.6,5.4l-5,12.37a83.26,83.26,0,0,0-8.28-3.34A25.2,25.2,0,0,0,197.11,13Z" fill="#c33427"/></g></g><g id="Group_22" data-name="Group 22"><g id="Group_21" data-name="Group 21"><path id="Path_9" data-name="Path 9" d="M261.38,73.14,237,9.52h-.39q.69,7.56.69,18V73.14h-7.71V1.37h12.57l22.73,59.2h.39l22.92-59.2H300.7V73.14h-8.34V26.9q0-8,.68-17.28h-.39L268.11,73.14Z" fill="#8e8e8e"/><path id="Path_10" data-name="Path 10" d="M355.49,71.78h-40V0h40V7.42H323.83V30.54h29.75v7.37H323.83v26.4h31.66Z" fill="#8e8e8e"/><path id="Path_11" data-name="Path 11" d="M399.13,7.47q-11.82,0-18.67,7.88t-6.85,21.57q0,14.1,6.6,21.77T399,66.38a64.54,64.54,0,0,0,17.13-2.7V71q-7.46,2.81-18.4,2.8-15.87,0-24.48-9.62t-8.61-27.34a43.08,43.08,0,0,1,4.15-19.44,29.71,29.71,0,0,1,12-12.86A36.16,36.16,0,0,1,399.23,0,44.45,44.45,0,0,1,419,4.14l-3.53,7.16A38.05,38.05,0,0,0,399.13,7.47Z" fill="#8e8e8e"/></g></g></g></g></g></svg>