<svg xmlns="http://www.w3.org/2000/svg" width="893" height="1385" fill="none" viewBox="0 0 893 1385"><path fill="#001A45" d="M76.0995 553.951L74.4661 551.594L79.0098 548.435L80.6432 550.792L76.0995 553.951ZM85.1869 547.623L83.5536 545.266L88.0973 542.107L89.7306 544.464L85.1869 547.623ZM94.2645 541.304L92.6311 538.947L97.1748 535.788L98.8082 538.145L94.2645 541.304ZM103.342 534.976L101.709 532.619L106.252 529.46L107.886 531.817L103.342 534.976ZM112.429 528.648L110.796 526.29L115.34 523.131L116.973 525.488L112.429 528.648ZM121.507 522.319L119.874 519.962L124.417 516.803L126.051 519.16L121.507 522.319ZM130.585 515.991L128.951 513.634L133.495 510.474L135.128 512.831L130.585 515.991ZM139.672 509.662L138.039 507.305L142.582 504.146L144.216 506.503L139.672 509.662ZM148.75 503.334L147.116 500.977L151.66 497.817L153.293 500.175L148.75 503.334ZM157.837 497.005L156.194 494.648L160.737 491.489L162.371 493.846L157.837 497.005ZM166.915 490.677L165.281 488.32L169.825 485.161L171.458 487.518L166.915 490.677ZM175.992 484.349L174.359 481.991L178.902 478.832L180.536 481.189L175.992 484.349ZM185.07 478.02L183.436 475.663L187.98 472.504L189.613 474.861L185.07 478.02ZM194.157 471.702L192.524 469.344L197.067 466.185L198.701 468.542L194.157 471.702ZM203.235 465.373L201.601 463.016L206.145 459.857L207.778 462.214L203.235 465.373ZM212.322 459.045L210.689 456.688L215.232 453.528L216.866 455.885L212.322 459.045ZM221.4 452.716L219.766 450.359L224.31 447.2L225.943 449.557L221.4 452.716ZM230.477 446.388L228.844 444.031L233.387 440.871L235.021 443.229L230.477 446.388ZM239.565 440.059L237.931 437.702L242.475 434.543L244.108 436.9L239.565 440.059ZM248.642 433.731L247.009 431.374L251.552 428.215L253.186 430.572L248.642 433.731ZM257.72 427.402L256.086 425.045L260.63 421.886L262.263 424.243L257.72 427.402ZM266.807 421.074L265.174 418.717L269.717 415.558L271.351 417.915L266.807 421.074ZM275.885 414.746L274.251 412.388L278.795 409.229L280.428 411.586L275.885 414.746ZM284.962 408.417L283.329 406.06L287.873 402.901L289.506 405.258L284.962 408.417ZM294.05 402.099L292.416 399.742L296.96 396.582L298.593 398.939L294.05 402.099ZM303.127 395.77L301.494 393.413L306.037 390.254L307.671 392.611L303.127 395.77ZM312.205 389.442L310.571 387.085L315.115 383.925L316.748 386.282L312.205 389.442ZM321.292 383.113L319.659 380.756L324.202 377.597L325.836 379.954L321.292 383.113ZM330.37 376.785L328.736 374.428L333.28 371.268L334.913 373.626L330.37 376.785ZM339.447 370.456L337.814 368.099L342.358 364.94L343.991 367.297L339.447 370.456ZM348.535 364.128L346.901 361.771L351.445 358.612L353.078 360.969L348.535 364.128ZM357.612 357.799L355.979 355.442L360.523 352.283L362.156 354.64L357.612 357.799ZM467.048 353.729L463.533 349.451L465.741 347.628L469.255 351.907L467.048 353.729ZM473.393 352.065L471.809 349.678L476.412 346.608L477.996 348.995L473.393 352.065ZM366.69 351.471L365.056 349.114L369.6 345.955L371.233 348.312L366.69 351.471ZM482.599 345.935L481.015 343.548L485.618 340.478L487.202 342.865L482.599 345.935ZM460.009 345.182L456.495 340.904L458.703 339.082L462.217 343.36L460.009 345.182ZM375.777 345.143L374.144 342.786L378.688 339.626L380.321 341.983L375.777 345.143ZM491.815 339.805L490.231 337.418L494.834 334.348L496.418 336.734L491.815 339.805ZM384.855 338.824L383.221 336.467L387.765 333.308L389.398 335.665L384.855 338.824ZM452.981 336.635L449.467 332.357L451.674 330.535L455.188 334.813L452.981 336.635ZM501.031 333.664L499.448 331.277L504.051 328.207L505.635 330.594L501.031 333.664ZM393.932 332.496L392.299 330.139L396.843 326.979L398.476 329.336L393.932 332.496ZM445.943 328.089L442.428 323.81L444.636 321.988L448.15 326.266L445.943 328.089ZM510.247 327.534L508.664 325.147L513.267 322.077L514.851 324.464L510.247 327.534ZM403.02 326.167L401.386 323.81L405.93 320.651L407.563 323.008L403.02 326.167ZM519.464 321.404L517.88 319.017L522.483 315.947L524.067 318.333L519.464 321.404ZM412.097 319.839L410.464 317.482L415.008 314.322L416.641 316.679L412.097 319.839ZM438.914 319.542L435.4 315.263L437.607 313.441L441.122 317.719L438.914 319.542ZM528.68 315.273L527.096 312.886L531.699 309.816L533.283 312.203L528.68 315.273ZM421.175 313.51L419.541 311.153L424.085 307.994L425.719 310.351L421.175 313.51ZM639.115 313.391L635.601 309.123L637.808 307.301L641.322 311.579L639.115 313.391ZM645.549 311.094L643.966 308.707L648.569 305.637L650.162 308.024L645.549 311.094ZM431.876 310.995L428.451 306.835L429.441 306.023L428.619 304.835L429.827 303.993L434.093 309.173L431.876 310.995ZM537.896 309.143L536.312 306.756L540.915 303.686L542.499 306.073L537.896 309.143ZM654.756 304.954L653.162 302.567L657.765 299.497L659.359 301.883L654.756 304.954ZM632.087 304.845L628.572 300.566L630.78 298.744L634.294 303.022L632.087 304.845ZM547.102 303.012L545.518 300.626L550.121 297.565L551.705 299.952L547.102 303.012ZM663.972 298.813L662.388 296.426L666.991 293.356L668.575 295.743L663.972 298.813ZM556.318 296.882L554.734 294.495L559.338 291.425L560.921 293.812L556.318 296.882ZM625.048 296.298L621.534 292.019L623.742 290.197L627.256 294.475L625.048 296.298ZM673.178 292.673L671.584 290.286L676.187 287.216L677.781 289.603L673.178 292.673ZM565.534 290.752L563.951 288.365L568.554 285.295L570.138 287.682L565.534 290.752ZM618.01 287.751L614.496 283.482L616.703 281.66L620.217 285.939L618.01 287.751ZM682.384 286.533L680.8 284.146L685.404 281.076L686.997 283.463L682.384 286.533ZM574.751 284.621L573.167 282.235L577.77 279.164L579.354 281.551L574.751 284.621ZM691.59 280.392L690.007 278.006L694.61 274.936L696.194 277.322L691.59 280.392ZM610.982 279.204L607.467 274.926L609.675 273.103L613.189 277.382L610.982 279.204ZM583.967 278.491L582.383 276.104L586.986 273.034L588.57 275.421L583.967 278.491ZM700.807 274.252L699.223 271.865L703.826 268.795L705.41 271.182L700.807 274.252ZM593.183 272.361L591.599 269.974L596.202 266.904L597.786 269.29L593.183 272.361ZM603.943 270.657L600.429 266.379L602.637 264.557L606.151 268.835L603.943 270.657ZM710.013 268.112L708.419 265.725L713.022 262.655L714.606 265.042L710.013 268.112ZM719.219 261.972L717.635 259.585L722.238 256.515L723.832 258.902L719.219 261.972ZM728.435 255.831L726.841 253.445L731.445 250.374L733.028 252.761L728.435 255.831ZM737.641 249.701L736.058 247.314L740.661 244.244L742.245 246.631L737.641 249.701ZM746.848 243.561L745.264 241.174L749.867 238.104L751.461 240.491L746.848 243.561ZM756.054 237.42L754.47 235.034L759.073 231.964L760.667 234.35L756.054 237.42ZM765.27 231.28L763.686 228.893L768.289 225.823L769.873 228.21L765.27 231.28ZM774.476 225.14L772.892 222.753L777.496 219.683L779.079 222.07L774.476 225.14ZM783.682 219L782.089 216.613L786.692 213.543L788.276 215.93L783.682 219ZM792.899 212.859L791.305 210.473L795.908 207.402L797.502 209.789L792.899 212.859Z"/><path fill="#C60022" d="M2.04427 283.31L0 284.67L1.58436 287.054L3.62863 285.694L2.04427 283.31Z"/><path fill="#C60022" d="M7.7061 282.967L6.12222 280.581L10.2106 277.857L11.7945 280.244L7.7061 282.967ZM15.8828 277.52L14.2989 275.134L18.3873 272.41L19.9712 274.797L15.8828 277.52ZM24.0694 272.073L22.4856 269.687L26.5739 266.963L28.1578 269.35L24.0694 272.073ZM32.2462 266.626L30.6623 264.24L34.7506 261.516L36.3345 263.903L32.2462 266.626ZM40.4328 261.189L38.8489 258.802L42.9372 256.079L44.5211 258.466L40.4328 261.189ZM48.6194 255.742L47.0355 253.355L51.1239 250.632L52.7077 253.019L48.6194 255.742ZM56.7961 250.295L55.2122 247.908L59.3006 245.185L60.8844 247.572L56.7961 250.295ZM64.9827 244.858L63.3988 242.471L67.4872 239.748L69.0711 242.135L64.9827 244.858ZM73.1693 239.411L71.5855 237.024L75.6738 234.301L77.2577 236.688L73.1693 239.411ZM81.346 233.964L79.7622 231.577L83.8505 228.854L85.4344 231.241L81.346 233.964ZM89.5327 228.517L87.9488 226.13L92.0371 223.407L93.621 225.794L89.5327 228.517ZM97.7094 223.08L96.1255 220.693L100.214 217.97L101.798 220.356L97.7094 223.08ZM105.896 217.633L104.312 215.246L108.4 212.523L109.984 214.909L105.896 217.633ZM114.083 212.186L112.499 209.799L116.587 207.076L118.171 209.462L114.083 212.186ZM122.259 206.739L120.675 204.352L124.764 201.629L126.348 204.015L122.259 206.739ZM130.446 201.302L128.862 198.915L132.95 196.192L134.534 198.578L130.446 201.302ZM138.633 195.855L137.049 193.468L141.137 190.745L142.721 193.131L138.633 195.855ZM146.809 190.408L145.225 188.021L149.314 185.298L150.898 187.684L146.809 190.408ZM154.996 184.961L153.412 182.574L157.5 179.851L159.084 182.237L154.996 184.961ZM163.173 179.524L161.589 177.137L165.677 174.413L167.261 176.8L163.173 179.524ZM171.359 174.077L169.775 171.69L173.864 168.966L175.448 171.353L171.359 174.077ZM179.546 168.63L177.962 166.243L182.05 163.519L183.634 165.906L179.546 168.63Z"/><path fill="#C60022" d="M189.435 163.44L188.693 162.539L187.723 163.183L186.139 160.796L189.267 158.726L191.643 161.618L189.435 163.44Z"/><path fill="#C60022" d="M222.162 203.213L218.885 199.232L221.103 197.41L224.379 201.391L222.162 203.213ZM215.618 195.261L212.342 191.279L214.549 189.457L217.826 193.438L215.618 195.261ZM209.075 187.308L205.798 183.327L208.006 181.504L211.283 185.486L209.075 187.308ZM202.522 179.355L199.245 175.374L201.453 173.552L204.729 177.533L202.522 179.355ZM195.979 171.393L192.702 167.412L194.909 165.589L198.186 169.571L195.979 171.393Z"/><path fill="#C60022" d="M227.824 210.086L225.438 207.195L227.646 205.372L228.388 206.273L229.358 205.63L230.942 208.017L227.824 210.086Z"/><path fill="#C60022" d="M235.09 205.253L233.506 202.867L237.654 200.103L239.238 202.49L235.09 205.253ZM243.386 199.737L241.802 197.35L245.949 194.587L247.533 196.974L243.386 199.737ZM251.681 194.221L250.097 191.834L254.245 189.071L255.829 191.458L251.681 194.221ZM259.967 188.704L258.383 186.318L262.531 183.554L264.114 185.941L259.967 188.704ZM268.262 183.178L266.678 180.791L270.826 178.028L272.41 180.415L268.262 183.178ZM276.558 177.662L274.974 175.275L279.122 172.512L280.705 174.899L276.558 177.662ZM284.853 172.145L283.269 169.759L287.417 166.996L289.001 169.382L284.853 172.145ZM293.139 166.629L291.555 164.242L295.703 161.479L297.287 163.866L293.139 166.629ZM301.434 161.113L299.85 158.726L303.998 155.963L305.582 158.35L301.434 161.113ZM309.73 155.596L308.146 153.21L312.294 150.447L313.878 152.833L309.73 155.596ZM318.025 150.07L316.441 147.683L320.589 144.92L322.173 147.307L318.025 150.07ZM326.321 144.554L324.737 142.167L328.885 139.404L330.469 141.791L326.321 144.554ZM334.606 139.038L333.023 136.651L337.17 133.888L338.754 136.274L334.606 139.038ZM342.902 133.521L341.318 131.134L345.466 128.371L347.05 130.758L342.902 133.521ZM351.197 128.005L349.614 125.618L353.761 122.855L355.345 125.242L351.197 128.005Z"/><path fill="#C60022" d="M361.196 122.736L360.463 121.845L359.493 122.489L357.909 120.102L361.027 118.022L363.413 120.914L361.196 122.736Z"/><path fill="#C60022" d="M393.932 162.509L390.656 158.528L392.863 156.706L396.14 160.687L393.932 162.509ZM387.379 154.557L384.102 150.575L386.31 148.753L389.587 152.734L387.379 154.557ZM380.836 146.604L377.559 142.623L379.766 140.8L383.043 144.782L380.836 146.604ZM374.292 138.651L371.016 134.67L373.223 132.848L376.5 136.829L374.292 138.651ZM367.739 130.699L364.462 126.717L366.67 124.895L369.947 128.876L367.739 130.699Z"/><path fill="#C60022" d="M399.585 169.392L397.199 166.49L399.416 164.668L400.149 165.56L401.109 164.916L402.713 167.303L399.585 169.392Z"/><path fill="#C60022" d="M406.851 164.53L405.257 162.143L409.405 159.37L410.998 161.757L406.851 164.53ZM415.146 158.974L413.552 156.587L417.7 153.814L419.294 156.201L415.146 158.974ZM423.442 153.428L421.848 151.041L425.996 148.268L427.589 150.655L423.442 153.428ZM431.737 147.872L430.143 145.485L434.291 142.712L435.885 145.099L431.737 147.872ZM440.023 142.326L438.429 139.939L442.577 137.166L444.17 139.553L440.023 142.326ZM448.318 136.77L446.724 134.383L450.872 131.61L452.466 133.997L448.318 136.77ZM456.614 131.224L455.02 128.837L459.168 126.064L460.761 128.451L456.614 131.224ZM464.909 125.668L463.316 123.281L467.463 120.508L469.057 122.895L464.909 125.668ZM473.195 120.122L471.601 117.735L475.749 114.962L477.343 117.349L473.195 120.122ZM481.49 114.566L479.897 112.179L484.044 109.406L485.638 111.793L481.49 114.566ZM489.786 109.02L488.192 106.633L492.34 103.86L493.934 106.247L489.786 109.02ZM498.081 103.464L496.488 101.077L500.635 98.3038L502.229 100.691L498.081 103.464ZM506.367 97.9175L504.773 95.5308L508.921 92.7577L510.515 95.1445L506.367 97.9175ZM514.662 92.3616L513.069 89.9748L517.216 87.2018L518.81 89.5886L514.662 92.3616ZM522.958 86.8155L521.364 84.4287L525.512 81.6557L527.106 84.0425L522.958 86.8155ZM531.254 81.2596L529.66 78.8728L533.808 76.0998L535.401 78.4865L531.254 81.2596ZM539.539 75.7135L537.945 73.3267L542.093 70.5537L543.687 72.9405L539.539 75.7135ZM547.835 70.1576L546.241 67.7708L550.389 64.9978L551.982 67.3845L547.835 70.1576ZM556.13 64.6115L554.536 62.2247L558.684 59.4517L560.278 61.8385L556.13 64.6115ZM564.426 59.0556L562.832 56.6688L566.98 53.8957L568.573 56.2825L564.426 59.0556ZM572.711 53.5095L571.118 51.1227L575.265 48.3497L576.859 50.7365L572.711 53.5095ZM581.007 47.9536L579.413 45.5668L583.561 42.7937L585.155 45.1805L581.007 47.9536ZM589.302 42.4075L587.708 40.0207L591.856 37.2477L593.45 39.6345L589.302 42.4075ZM597.598 36.8515L596.004 34.4648L600.152 31.6917L601.745 34.0785L597.598 36.8515ZM605.883 31.3055L604.29 28.9187L608.437 26.1457L610.031 28.5325L605.883 31.3055ZM614.179 25.7495L612.585 23.3628L616.733 20.5897L618.327 22.9765L614.179 25.7495Z"/><path fill="#C60022" d="M622.915 16.4753L620.875 17.8411L622.466 20.2199L624.506 18.854L622.915 16.4753Z"/><path fill="#C60022" d="M622.118 18.2624L615.337 7.77438L627.81 7.15045L640.283 6.52652L634.591 17.6384L628.889 28.7602L622.118 18.2624Z"/><path fill="#C60022" d="M247.355 384.312L240.584 373.814L253.057 373.19L265.53 372.566L259.828 383.688L254.136 394.8L247.355 384.312Z"/><path fill="#001A45" d="M747.481 100.364L740.7 89.8658L753.173 89.2419L765.646 88.618L759.954 99.7398L754.252 110.852L747.481 100.364Z"/><path fill="#001A45" d="M798.571 208.324L791.79 197.836L804.263 197.212L816.736 196.578L811.044 207.7L805.342 218.821L798.571 208.324Z"/><path fill="#001A45" d="M61.3398 413.676L59.7461 411.289L353.197 214.434L392.328 261.982L524.967 173.73L564.089 221.277L747.461 98.8683L749.055 101.255L563.525 225.1L524.403 177.553L391.764 265.804L352.643 218.257L61.3398 413.676Z"/><path fill="#D1D3D4" d="M577.017 107.593C577.017 107.593 524.304 62.3238 426.095 85.7459C426.095 85.7459 338.15 106.534 330.38 210.76C330.38 210.76 328.717 245.234 365.334 303.924C365.334 303.924 378.648 343.667 375.322 411.032L487.182 363.969L577.017 203.699V107.593Z"/><path fill="#122B42" d="M445.26 328.504H438.073C437.548 325.969 436.855 323.513 435.984 321.136L441.993 317.67C443.428 316.838 443.923 314.996 443.102 313.54L437.073 303.102C436.231 301.666 434.38 301.17 432.955 302.002L426.708 305.607C425.036 303.696 423.204 301.913 421.244 300.279L424.719 294.258C425.55 292.802 425.055 290.97 423.61 290.138L413.176 284.106C411.741 283.284 409.9 283.78 409.068 285.216L405.475 291.455C403.079 290.643 400.594 290.019 398.06 289.573V282.611C398.06 280.947 396.714 279.59 395.051 279.59H383.014C381.331 279.59 379.984 280.947 379.984 282.611V289.811C377.46 290.316 375.005 291.019 372.629 291.891L369.174 285.879C368.333 284.433 366.492 283.948 365.037 284.77L354.603 290.811C353.167 291.633 352.673 293.485 353.504 294.921L357.107 301.17C355.197 302.854 353.405 304.676 351.782 306.637L345.763 303.161C344.308 302.329 342.476 302.834 341.645 304.27L335.606 314.709C334.775 316.145 335.27 317.997 336.715 318.819L342.951 322.424C342.14 324.82 341.516 327.296 341.081 329.832H334.131C332.458 329.832 331.112 331.198 331.112 332.852V344.905C331.112 346.569 332.458 347.916 334.131 347.916H341.328C341.833 350.451 342.526 352.917 343.397 355.284L337.378 358.76C335.933 359.592 335.458 361.444 336.279 362.88L342.298 373.309C343.13 374.755 344.981 375.25 346.416 374.428L352.663 370.813C354.345 372.734 356.177 374.527 358.127 376.151L354.652 382.172C353.821 383.608 354.306 385.46 355.751 386.282L366.195 392.314C367.64 393.136 369.471 392.651 370.303 391.205L373.916 384.965C376.312 385.777 378.777 386.401 381.321 386.827V393.799C381.321 395.463 382.667 396.81 384.32 396.81L396.377 396.82C398.04 396.82 399.387 395.473 399.387 393.799V386.599C401.901 386.084 404.356 385.401 406.742 384.52L410.216 390.521C411.048 391.977 412.879 392.462 414.325 391.63L424.768 385.599C426.204 384.777 426.689 382.925 425.867 381.479L422.264 375.24C424.184 373.566 425.966 371.734 427.599 369.773L433.618 373.259C435.063 374.091 436.895 373.596 437.736 372.16L443.755 361.721C444.586 360.285 444.091 358.433 442.656 357.611L436.41 353.997C437.221 351.61 437.845 349.124 438.281 346.598H445.24C446.903 346.598 448.239 345.242 448.249 343.578V331.525C448.279 329.841 446.923 328.504 445.26 328.504ZM389.695 362.256C376.421 362.256 365.66 351.481 365.66 338.21C365.66 324.919 376.421 314.154 389.695 314.154C402.97 314.154 413.731 324.919 413.731 338.21C413.731 351.491 402.97 362.256 389.695 362.256Z"/><path fill="#1C4563" d="M389.695 300.14C368.67 300.14 351.633 317.185 351.633 338.22C351.633 359.236 368.67 376.29 389.695 376.29C410.721 376.29 427.758 359.236 427.758 338.22C427.758 317.185 410.721 300.14 389.695 300.14ZM389.695 369.476C372.431 369.476 358.434 355.472 358.434 338.21C358.434 320.938 372.431 306.934 389.695 306.934C406.96 306.934 420.947 320.938 420.947 338.21C420.947 355.472 406.96 369.476 389.695 369.476Z"/><path fill="#1C4563" d="M389.695 300.14C389.339 300.14 388.993 300.15 388.646 300.16V306.974C388.993 306.954 389.329 306.934 389.695 306.934C406.96 306.934 420.947 320.938 420.947 338.21C420.947 355.472 406.96 369.476 389.695 369.476C389.329 369.476 388.993 369.456 388.646 369.446V376.26C388.993 376.26 389.329 376.28 389.695 376.28C410.721 376.28 427.758 359.226 427.758 338.21C427.758 317.185 410.721 300.14 389.695 300.14Z"/><path fill="#001A45" d="M526.116 251.484L525.512 233.459L481.966 214.286L474.858 187.288C475.046 187.189 445.764 172.849 445.952 172.759C430.46 176.216 434.855 164.054 434.855 164.054L468.988 234.271L526.116 251.484Z"/><path fill="#00102E" d="M523.473 232.558L466.879 218.524L471.195 210.79L461.791 201.648L455.545 206.59V222.218C455.545 222.218 461.088 230.131 463.89 230.953C466.691 231.775 498.547 242.422 498.784 242.561C499.032 242.699 518.256 249.127 518.256 249.127L523.473 232.558Z"/><path fill="#FFD59A" d="M524.997 244.135C524.304 246.027 524.611 248.849 523.641 250.929C526.175 252.276 532.847 253.692 537.767 255.475C543.4 257.515 547.241 247.681 546.587 241.956C545.924 236.173 542.855 241.976 542.093 237.034C541.45 232.885 531.056 234.41 527.957 235.153C527.502 238.223 526.264 241.293 524.997 244.135Z"/><path fill="#E6E6E6" d="M530.125 233.657L524.661 252.177L518.256 250.236L523.72 231.716L530.125 233.657Z"/><path fill="#030202" d="M493.785 378.954C494.221 380.083 494.617 380.717 494.933 380.736C498.854 381.063 498.141 388.541 499.457 389.273C505.961 392.898 531.026 404.594 533.233 398.622C535.441 392.66 512.099 379.142 512.099 379.142L512.059 378.785C505.951 379.439 499.477 379.043 493.785 378.954Z"/><path fill="#001A45" d="M411.375 274.213L411.612 273.539C431.727 251.771 419.829 258.406 429.55 254.633C429.193 255.267 549.834 259.852 549.834 259.852L513.316 376.21C509.436 383.5 494.745 384.51 492.944 380.984C491.449 370.288 513.247 291.881 513.247 291.881L454.05 297.843L411.375 274.213Z"/><path fill="#00102E" d="M411.375 274.213L411.612 273.539C431.727 251.771 429.866 258.971 439.597 255.198C439.567 255.237 457.04 256.119 457.04 256.119L533.382 268.399C533.382 268.399 502.417 361.395 503.912 372.091C504.872 373.962 509.456 374.547 514.128 373.606L513.306 376.22C509.426 383.509 494.736 384.52 492.934 380.994C491.439 370.298 513.237 291.891 513.237 291.891L454.04 297.853L411.375 274.213Z"/><path fill="#E3E3E3" d="M441.983 164.906L420.64 159.518C425.025 178.642 417.433 201.639 413.226 221C410.731 231.934 407.534 242.254 404.237 252.969C401.772 261.595 406.435 264.784 406.435 264.784L427.352 281.244C429.955 280.462 430.015 268.964 443.091 257.525C443.091 257.525 441.27 250.919 456.812 229.032C458.722 226.338 457.317 224.724 459.079 221.892C466.048 175.83 462.642 180.356 441.983 164.906Z"/><path fill="#FFC16B" d="M445.329 146.188L436.043 144.178C436.043 144.178 425.184 154.695 422.868 156.795C420.551 158.894 450.367 178.127 450.367 178.127C450.367 178.127 451.179 176.374 456.95 173.988C456.95 173.988 455.842 167.481 456.445 166.807C460.128 162.687 445.329 146.188 445.329 146.188Z"/><path fill="#030202" d="M472.106 392.71C472.542 393.839 472.937 394.463 473.254 394.493C477.174 394.819 476.462 402.297 477.778 403.03C484.292 406.654 509.347 418.351 511.554 412.379C513.762 406.417 490.419 392.898 490.419 392.898L490.38 392.542C484.272 393.195 477.798 392.799 472.106 392.71Z"/><path fill="#001A45" d="M432.361 311.609L491.558 305.647C491.558 305.647 469.76 384.054 471.255 394.75C473.056 398.276 487.747 397.256 491.627 389.977L528.145 273.618C528.145 273.618 407.504 269.023 407.86 268.399C398.139 272.172 410.038 265.527 389.923 287.305L389.685 287.979"/><path fill="#00102E" d="M500.15 291.92C498.497 296.635 478.748 304.607 474.076 305.964C472.373 306.637 470.265 306.023 468.206 306.142C458.514 306.37 450.031 307.786 440.825 308.103C435.489 308.459 400.357 300.18 406.346 270.766C407.375 265.725 396.516 287.583 389.933 287.216C391.408 289.811 388.052 307.152 407.979 312.787L432.371 311.609L492.191 305.835L485.915 326.256C485.905 326.256 496.606 302.002 500.15 291.92Z"/><path fill="#C9C9C9" d="M422.561 161.608L439.954 189.071L443.25 182C443.25 182 438.34 230.032 438.587 229.874C438.835 229.715 447.685 185.931 447.685 185.931L449.199 183.762L453.03 186.971L458.97 176.038L457.109 172.74L447.794 178.167C447.794 178.167 440.399 178.206 440.082 178.088C439.756 177.959 422.561 161.608 422.561 161.608Z"/><path fill="#001A45" d="M434.341 214.731C440.943 194.478 435.756 176.978 418.69 154.358L392.002 164.054C392.002 164.054 388.735 233.211 383.786 243.858C376.133 260.328 370.055 261.259 370.055 261.259C367.393 275.302 378.816 298.576 388.141 300.645C391.517 295.307 421.066 255.435 434.341 214.731Z"/><path fill="#00245E" d="M418.7 154.18L415.404 156.795C423.887 173.839 414.602 181.227 414.602 181.227L426.649 190.368L415.8 193.587C415.8 193.587 427.56 219.832 421.185 245.749C421.185 245.749 431.094 224.526 434.341 214.563C440.953 194.3 435.766 176.8 418.7 154.18Z"/><path fill="#00102E" d="M434.341 214.731C429.47 229.656 422.412 244.472 415.265 257.515L392.012 164.054C392.012 164.054 418.749 188.189 436.845 203.273C436.439 207.026 435.608 210.829 434.341 214.731Z"/><path fill="#001A45" d="M458.029 172.581L454.347 176.038C455.565 203.926 446.923 242.749 433.361 269.122C460.019 246.096 474.858 187.288 474.858 187.288L458.029 172.581Z"/><path fill="#00102E" d="M459.92 225.249C461.831 222.535 463.731 213.127 463.731 213.127C463.731 213.127 463.038 210.582 461.365 206.105C465.751 205.63 464.771 203.085 469.008 201.748C466.394 201.094 464.593 194.26 463.256 192.072C458.564 192.339 459.702 196.637 454.882 196.924C454.703 216.979 456.208 228.735 442.062 249.978C446.715 246.324 453.991 233.043 459.92 225.249Z"/><path fill="#00245E" d="M445.527 245.175C454.634 232.548 457.346 223.001 468.255 212.146C464.197 211.067 461.524 205.699 459.94 201.807C464.662 201.569 465.127 200.331 469.651 198.935C462.157 193.201 457.822 181.544 458.742 172.76L454.357 176.038C455.475 201.757 449.674 225.467 441.527 251.008C442.26 248.701 444.378 247.116 445.527 245.175Z"/><path fill="#FFD59A" d="M451.625 116.913C451.625 116.913 460.653 111.129 469.473 116.764C478.283 122.399 479.352 125.668 476.373 132.551C473.393 139.424 469.899 143.662 473.64 145.831C477.382 148 480.332 147.693 480.332 147.693C480.332 147.693 478.877 153.774 473.561 154.903C470.364 155.587 466.523 154.864 466.523 154.864C466.523 154.864 465.276 162.153 467.087 166.49C468.493 169.848 459.92 173.839 447.121 165.134C437.588 158.647 436.578 151.873 437.33 149.912C438.419 147.05 438.934 146.505 440.043 144.524C441.151 142.533 451.625 116.913 451.625 116.913Z"/><path fill="#382100" d="M451.536 120.478C451.536 120.478 451.783 136.086 447.408 139.137C443.032 142.187 436.449 146.812 436.449 146.812C436.449 146.812 433.252 149.446 432.054 133.828C430.817 117.784 429.579 118.478 432.668 115.813C435.746 113.149 438.33 112.862 438.33 112.862C438.33 112.862 437.152 106.336 440.884 103.959C444.606 101.582 458.663 101.76 470.047 106.276C481.421 110.782 489.855 118.359 487.113 124.34C484.846 129.263 469.819 134.313 451.536 120.478Z"/><path fill="#261700" d="M486.539 118.2C484.232 123.766 471.146 109.99 457.623 107.435C451.882 106.346 446.388 107.148 442.933 110.317C439.478 113.486 445.863 116.814 445.863 116.814C445.863 116.814 441.072 114.694 439.132 114.506C437.192 114.318 434.479 121.983 433.776 125.628C433.163 128.787 430.916 140.028 437.33 146.178C439.27 144.811 444.002 141.494 447.398 139.127C451.773 136.076 451.526 120.468 451.526 120.468C469.809 134.304 484.836 129.253 487.093 124.331C487.994 122.409 487.717 120.31 486.539 118.2Z"/><path fill="#FFD59A" d="M449.011 138.057C447.893 142.355 443.507 144.94 439.211 143.821C434.915 142.702 432.331 138.315 433.45 134.016C434.568 129.718 438.954 127.133 443.25 128.252C447.546 129.372 450.12 133.759 449.011 138.057Z"/><path fill="#FFC16B" d="M441.033 142.484C441.033 142.484 438.479 140.87 440.864 138.73C442.072 137.651 444.121 138.691 444.121 138.691C444.121 138.691 443.596 134.72 441.072 134.987C438.558 135.264 438.093 137.542 438.093 137.542C438.093 137.542 437.994 133.551 441.706 133.838C445.418 134.125 444.497 139.325 444.497 139.325C444.497 139.325 441.112 137.77 440.706 140.622C440.538 141.87 441.033 142.484 441.033 142.484Z"/><path fill="#FFC16B" d="M466.295 154.804C466.295 154.804 463.533 153.14 465.008 151.318C465.86 150.258 466.879 149.575 466.879 149.575C466.879 149.575 460.554 152.299 466.295 154.804Z"/><path fill="#C60022" d="M442.369 178.454L448.942 183C448.942 183 427.154 252.306 450.1 270.281C456.376 272.222 459.465 271.628 459.465 271.628L460.504 263.546C460.504 263.546 446.091 255.099 444.962 237.579C443.389 213.127 451.328 182.901 451.328 182.901L456.683 179.058L450.051 176.147L442.369 178.454Z"/><path fill="#E3E3E3" d="M424.333 154.646L451.318 176.057L456.96 171.432L459.178 174.542L453.367 185.486L451.08 176.761L439.399 182.524L421.046 158.062L424.333 154.646Z"/><path fill="#fff" d="M451.318 176.057L432.4 164.421C432.509 168.996 433.331 169.58 433.093 174.047L439.409 182.534L451.08 176.77L453.377 185.496L458.257 176.602C458.465 176.057 457.039 172.839 457.039 172.839L451.318 176.057Z"/><path fill="#122B42" d="M375.757 411.17L574.355 105.335C581.64 110.02 595.281 121.746 602.132 129.124C624.167 152.843 643.451 180.276 641.303 228.992C640.857 239.51 626.493 252.484 638.076 272.242C638.076 272.242 662.774 310.985 662.368 317.65C662.368 317.65 663.328 329.812 644.619 331.129C644.619 331.129 639.481 332.803 641.362 343.033L643.975 355.363C643.975 355.363 644.49 362.187 634.423 364.99C634.423 364.99 632.908 366.624 635.423 369.506C635.423 369.506 640.57 374.022 633.106 384.896C630.423 388.798 626.305 393.839 629.592 403.535C629.592 403.535 634.056 422.272 626.88 427.165C626.88 427.165 618.96 437.653 584.699 435.216C573.276 434.424 552.279 430.096 539.846 444.902C539.44 445.645 533.214 457.341 537.173 468.225C538.886 472.949 539.41 477.901 533.61 479.426C528.234 480.852 522.938 479.03 517.712 477.97C507.901 475.99 498.299 473.316 488.845 470.156C404.841 438.623 375.757 411.17 375.757 411.17Z"/><path fill="#404041" d="M574.355 105.335C574.355 105.335 656.35 180.019 593.232 282.423C593.232 282.423 566.514 324.87 507.674 345.103C449.199 365.217 379.272 404.228 375.757 411.17L574.355 105.335Z" opacity=".3"/><path fill="#F1F2F2" d="M574.216 105.197C574.216 105.197 642.797 166.134 583.224 275.767C583.224 275.767 559.318 320.284 500.477 340.518C442.003 360.632 379.113 404.089 375.599 411.032L574.216 105.197Z"/><path fill="#122B42" d="M632.987 96.3329H625.108C624.534 93.55 623.771 90.8661 622.811 88.2515L629.404 84.4485C630.978 83.5374 631.522 81.517 630.622 79.9225L624.009 68.4739C623.088 66.8992 621.059 66.3545 619.495 67.2657L612.645 71.2172C610.803 69.1177 608.794 67.1666 606.646 65.3741L610.457 58.7683C611.368 57.1738 610.823 55.1634 609.239 54.2424L597.796 47.6267C596.222 46.7255 594.202 47.2603 593.282 48.8449L589.332 55.6883C586.709 54.797 583.986 54.1136 581.205 53.6283V45.9926C581.205 44.1703 579.73 42.6848 577.899 42.6848H564.693C562.852 42.6848 561.377 44.1703 561.377 45.9926V53.8858C558.605 54.4404 555.922 55.2129 553.309 56.1637L549.518 49.5678C548.597 47.9733 546.578 47.4484 544.974 48.3497L533.53 54.9752C531.956 55.8765 531.422 57.9067 532.333 59.4913L536.292 66.3446C534.194 68.1867 532.234 70.1872 530.452 72.3363L523.849 68.5234C522.255 67.6123 520.246 68.1669 519.325 69.7416L512.703 81.1902C511.792 82.7649 512.326 84.7952 513.92 85.7063L520.76 89.6578C519.87 92.2922 519.187 94.9959 518.711 97.7789H511.089C509.258 97.7789 507.773 99.2743 507.773 101.097V114.308C507.773 116.14 509.248 117.606 511.089 117.606H518.979C519.533 120.389 520.285 123.093 521.246 125.687L514.643 129.5C513.059 130.411 512.534 132.442 513.435 134.016L520.038 145.465C520.949 147.05 522.978 147.594 524.562 146.683L531.412 142.722C533.263 144.821 535.263 146.792 537.411 148.575L533.6 155.18C532.689 156.765 533.224 158.785 534.807 159.697L546.261 166.312C547.845 167.213 549.864 166.679 550.765 165.104L554.725 158.26C557.348 159.142 560.06 159.835 562.852 160.311V167.956C562.852 169.788 564.327 171.254 566.148 171.254L579.374 171.264C581.195 171.264 582.68 169.788 582.68 167.956V160.063C585.442 159.498 588.134 158.746 590.748 157.785L594.559 164.371C595.47 165.966 597.479 166.5 599.063 165.589L610.516 158.974C612.09 158.072 612.625 156.042 611.714 154.448L607.754 147.604C609.853 145.762 611.813 143.762 613.605 141.603L620.208 145.425C621.791 146.336 623.801 145.792 624.722 144.217L631.324 132.759C632.235 131.184 631.691 129.154 630.127 128.252L623.276 124.291C624.167 121.666 624.85 118.953 625.335 116.18H632.968C634.789 116.18 636.264 114.694 636.264 112.862V99.6407C636.294 97.7986 634.809 96.3329 632.987 96.3329ZM572.038 133.363C557.477 133.363 545.667 121.548 545.667 106.989C545.667 92.4111 557.477 80.6059 572.038 80.6059C586.6 80.6059 598.4 92.4111 598.4 106.989C598.41 121.538 586.6 133.363 572.038 133.363Z"/><path fill="#1C4563" d="M572.038 65.2156C548.973 65.2156 530.293 83.9137 530.293 106.989C530.293 130.045 548.983 148.753 572.038 148.753C595.093 148.753 613.793 130.045 613.793 106.989C613.793 83.9137 595.093 65.2156 572.038 65.2156ZM572.038 141.276C553.101 141.276 537.747 125.915 537.747 106.979C537.747 88.0337 553.101 72.6731 572.038 72.6731C590.975 72.6731 606.319 88.0337 606.319 106.979C606.319 125.915 590.975 141.276 572.038 141.276Z"/><path fill="#1C4563" d="M572.038 65.2156C571.642 65.2156 571.276 65.2255 570.89 65.2354V72.7127C571.266 72.6929 571.642 72.6731 572.038 72.6731C590.975 72.6731 606.319 88.0337 606.319 106.979C606.319 125.915 590.975 141.276 572.038 141.276C571.642 141.276 571.266 141.256 570.89 141.246V148.723C571.266 148.723 571.642 148.753 572.038 148.753C595.093 148.753 613.793 130.045 613.793 106.989C613.793 83.9137 595.093 65.2156 572.038 65.2156Z"/><path fill="#122B42" d="M507.545 44.6754H502.645C502.289 42.9423 501.813 41.2785 501.22 39.6543L505.318 37.2873C506.298 36.7228 506.634 35.465 506.07 34.4747L501.962 27.3539C501.388 26.3735 500.131 26.0367 499.151 26.6012L494.894 29.0573C493.756 27.7501 492.498 26.5418 491.162 25.4227L493.538 21.3127C494.102 20.3223 493.765 19.0745 492.785 18.5L485.668 14.39C484.688 13.8255 483.431 14.1622 482.866 15.1427L480.411 19.4013C478.778 18.8467 477.085 18.4208 475.353 18.1237V13.3798C475.353 12.2508 474.442 11.3199 473.304 11.3199H465.097C463.949 11.3199 463.038 12.2508 463.038 13.3798V18.2921C461.316 18.6387 459.643 19.1141 458.02 19.7083L455.664 15.6082C455.089 14.6178 453.832 14.291 452.842 14.8555L445.725 18.9754C444.745 19.5399 444.408 20.7977 444.972 21.7782L447.427 26.0367C446.121 27.1856 444.903 28.4235 443.794 29.7605L439.696 27.3935C438.706 26.829 437.449 27.1657 436.885 28.1561L432.767 35.2768C432.203 36.2573 432.539 37.5151 433.519 38.0796L437.776 40.5357C437.221 42.1698 436.796 43.8534 436.499 45.5866H431.757C430.619 45.5866 429.698 46.5175 429.698 47.6465V55.8666C429.698 57.0055 430.619 57.9166 431.757 57.9166H436.667C437.014 59.6498 437.479 61.3334 438.083 62.9477L433.984 65.3147C433.004 65.8891 432.678 67.1468 433.232 68.1174L437.34 75.2282C437.904 76.2087 439.172 76.5553 440.152 75.9908L444.418 73.5248C445.566 74.8321 446.814 76.0601 448.14 77.1594L445.774 81.2695C445.21 82.2499 445.537 83.5077 446.527 84.0722L453.654 88.1822C454.634 88.7467 455.891 88.41 456.455 87.4295L458.92 83.171C460.554 83.7256 462.237 84.1514 463.969 84.4386V89.1924C463.969 90.3313 464.89 91.2424 466.018 91.2424L474.244 91.2523C475.373 91.2523 476.303 90.3313 476.303 89.1924V84.2901C478.016 83.9335 479.689 83.4681 481.322 82.8739L483.698 86.9641C484.262 87.9544 485.51 88.2912 486.499 87.7168L493.617 83.6067C494.597 83.0521 494.934 81.7844 494.359 80.7941L491.895 76.5355C493.201 75.3966 494.419 74.1487 495.537 72.8018L499.646 75.1787C500.635 75.7432 501.873 75.4065 502.457 74.426L506.565 67.3053C507.129 66.3248 506.793 65.0671 505.813 64.5026L501.556 62.0366C502.11 60.4024 502.536 58.7188 502.833 56.9956H507.575C508.703 56.9956 509.624 56.0745 509.624 54.9356V46.7156C509.604 45.5866 508.674 44.6754 507.545 44.6754ZM469.651 67.6915C460.593 67.6915 453.258 60.343 453.258 51.2911C453.258 42.2292 460.593 34.8906 469.651 34.8906C478.699 34.8906 486.044 42.2292 486.044 51.2911C486.044 60.343 478.709 67.6915 469.651 67.6915Z"/><path fill="#1C4563" d="M469.651 25.3336C455.317 25.3336 443.695 36.9605 443.695 51.301C443.695 65.6316 455.307 77.2684 469.651 77.2684C483.985 77.2684 495.607 65.6415 495.607 51.301C495.607 36.9506 483.985 25.3336 469.651 25.3336ZM469.651 72.6137C457.881 72.6137 448.338 63.0665 448.338 51.2911C448.338 39.5156 457.881 29.9586 469.651 29.9586C481.421 29.9586 490.964 39.5057 490.964 51.2911C490.964 63.0665 481.431 72.6137 469.651 72.6137Z"/><path fill="#1C4563" d="M469.651 25.3336C469.404 25.3336 469.176 25.3336 468.938 25.3435V29.9883C469.176 29.9784 469.404 29.9685 469.651 29.9685C481.421 29.9685 490.964 39.5156 490.964 51.301C490.964 63.0764 481.421 72.6236 469.651 72.6236C469.404 72.6236 469.176 72.6137 468.938 72.6037V77.2486C469.176 77.2486 469.404 77.2684 469.651 77.2684C483.985 77.2684 495.607 65.6415 495.607 51.301C495.607 36.9506 483.985 25.3336 469.651 25.3336Z"/><path fill="#001A45" d="M494.775 251.484L494.171 233.459L441.399 209.898L418.69 154.349C418.878 154.25 410.315 158.974 410.513 158.884C395.021 162.331 392.002 164.054 392.002 164.054L426.134 234.271L494.775 251.484Z"/><path fill="#FFD59A" d="M493.647 244.135C492.954 246.027 493.261 248.849 492.29 250.929C494.825 252.276 501.497 253.692 506.417 255.475C512.049 257.515 515.89 247.681 515.237 241.956C514.573 236.173 511.505 241.976 510.742 237.034C510.099 232.885 499.705 234.41 496.616 235.153C496.151 238.223 494.914 241.293 493.647 244.135Z"/><path fill="#E6E6E6" d="M498.774 233.657L493.31 252.177L486.905 250.236L492.37 231.716L498.774 233.657Z"/><path fill="#001A45" d="M243.801 246.086L212.213 214.484L180.635 246.086H196.038V287.533H228.428V246.086H243.801Z" opacity=".3"/><path fill="#001A45" d="M330.538 313.114L294.109 276.669L257.68 313.114H275.449V360.919H312.809V313.114H330.538Z"/><path fill="#001A45" d="M314.462 204.59L294.109 184.228L273.756 204.59H283.685V231.31H304.563V204.59H314.462Z" opacity=".5"/><path fill="#001A45" d="M704.261 152.001L732.009 124.251L759.746 152.001H746.214V188.407H717.764V152.001H704.261Z" opacity=".3"/><path fill="#001A45" d="M645.341 207.115L677.336 175.107L709.33 207.115H693.719V249.097H660.913V207.115H645.341Z"/><path fill="#C60022" d="M659.458 97.6105L677.336 79.7344L695.214 97.6105H686.492V121.072H668.159V97.6105H659.458Z"/><path fill="#E6E4E6" d="M195.127 70.2467C215.737 70.2467 236.337 70.2467 256.947 70.2467C277.666 70.2467 298.395 70.2467 319.114 70.2467C319.213 70.2467 319.322 70.2467 319.431 70.2467C327.954 70.2467 335.062 65.0869 335.062 58.9169C335.062 52.737 327.954 47.5871 319.431 47.5871C298.712 47.5871 277.983 47.5871 257.264 47.5871C236.654 47.5871 216.054 47.5871 195.444 47.5871C195.345 47.5871 195.236 47.5871 195.137 47.5871C186.614 47.5871 179.506 52.7469 179.506 58.9169C179.496 65.0968 186.604 70.2467 195.127 70.2467Z"/><path fill="#E6E4E6" d="M341.417 22.6596C354.9 22.6596 368.382 22.6596 381.865 22.6596C388.042 22.6596 393.19 17.4998 393.19 11.3298C393.19 5.14991 388.032 0 381.865 0C368.382 0 354.9 0 341.417 0C335.24 0 330.093 5.15981 330.093 11.3298C330.093 17.4998 335.25 22.6596 341.417 22.6596Z"/><path fill="#E6E4E6" d="M698.51 54.0245C711.993 54.0245 725.475 54.0245 738.958 54.0245C745.135 54.0245 750.282 48.8647 750.282 42.6947C750.282 36.5148 745.125 31.3649 738.958 31.3649C725.475 31.3649 711.993 31.3649 698.51 31.3649C692.333 31.3649 687.186 36.5247 687.186 42.6947C687.186 48.8647 692.343 54.0245 698.51 54.0245Z"/><path fill="#E6E4E6" d="M746.442 387.619C759.924 387.619 773.407 387.619 786.89 387.619C793.067 387.619 798.214 382.46 798.214 376.29C798.214 370.11 793.057 364.96 786.89 364.96C773.407 364.96 759.924 364.96 746.442 364.96C740.265 364.96 735.117 370.12 735.117 376.29C735.117 382.47 740.265 387.619 746.442 387.619Z"/><path fill="#E6E4E6" d="M314.838 479.941C328.321 479.941 341.803 479.941 355.286 479.941C361.463 479.941 366.611 474.782 366.611 468.612C366.611 462.432 361.453 457.282 355.286 457.282C341.803 457.282 328.321 457.282 314.838 457.282C308.661 457.282 303.513 462.442 303.513 468.612C303.513 474.782 308.661 479.941 314.838 479.941Z"/><path fill="#E6E4E6" d="M232.19 125.608C245.672 125.608 259.155 125.608 272.638 125.608C278.815 125.608 283.962 120.448 283.962 114.278C283.962 108.098 278.815 102.949 272.638 102.949C259.155 102.949 245.672 102.949 232.19 102.949C226.013 102.949 220.865 108.108 220.865 114.278C220.855 120.458 226.013 125.608 232.19 125.608Z"/><path fill="#E6E4E6" d="M673.703 426.115C688.631 426.115 703.569 426.115 718.497 426.115C733.514 426.115 748.531 426.115 763.548 426.115C763.627 426.115 763.696 426.115 763.775 426.115C769.952 426.115 775.1 420.955 775.1 414.785C775.1 408.605 769.942 403.455 763.775 403.455C748.758 403.455 733.741 403.455 718.724 403.455C703.796 403.455 688.858 403.455 673.93 403.455C673.851 403.455 673.782 403.455 673.703 403.455C667.526 403.455 662.378 408.615 662.378 414.785C662.378 420.955 667.526 426.115 673.703 426.115Z"/></svg>