<svg width="289" height="194" viewBox="0 0 289 194" fill="none" xmlns="http://www.w3.org/2000/svg">
<path opacity="0.1" d="M302.166 41.5796C300.644 29.41 274.777 27.8888 231.158 41.5796C232.68 44.115 234.709 46.1432 235.723 48.6786C252.968 46.6503 264.633 47.6644 266.662 53.2422C268.691 58.3129 261.083 66.933 246.881 76.5673C246.374 75.0461 245.867 73.5249 245.867 71.4966C245.867 70.9896 245.867 70.9896 245.36 70.4825C244.345 66.426 242.824 62.3694 240.795 58.3129V57.8058C227.608 28.3958 200.219 7.09895 167.759 1.5212C165.223 1.01413 162.687 1.01413 160.151 0.507061C157.615 0.507061 155.079 0 152.543 0C152.036 0 152.036 0 151.529 0C146.457 0 141.892 0.507072 137.327 1.01414C134.791 1.52121 132.255 2.02827 129.719 2.53534C129.212 2.53534 129.212 2.53534 128.705 2.53534C126.169 3.04241 123.633 3.54949 121.604 4.56362C119.068 5.07069 117.039 6.08483 114.503 7.09896H113.996C111.967 8.1131 109.431 9.12723 107.403 10.1414C106.895 10.1414 106.895 10.6484 106.388 10.6484C104.359 11.6626 102.331 12.6767 100.302 14.1979C98.2731 15.212 96.2443 16.7332 94.7227 18.2545C94.2155 18.2545 94.2155 18.7615 93.7083 18.7615C93.2011 19.2686 92.6939 19.7757 92.1867 19.7757C91.1723 20.7898 89.6507 21.8039 88.6364 22.8181C88.1292 23.3251 88.1292 23.3251 87.622 23.8322C86.6076 24.8464 85.086 25.8605 84.0716 26.8746C84.0716 26.8746 84.0716 26.8746 83.5644 27.3817C82.55 28.3958 81.0284 29.917 80.014 30.9312C76.4637 34.9877 72.9133 39.0443 69.8701 43.6079L69.3629 44.1149C68.3485 45.1291 67.8414 46.6503 66.827 48.1715C66.827 48.6786 66.3198 48.6786 66.3198 49.1856C65.8126 50.1998 64.7982 51.721 64.291 52.7351C64.291 53.2422 63.7838 53.2422 63.7838 53.7492C63.2766 55.2704 62.7694 56.2846 61.755 57.8058C61.755 58.3129 61.2478 58.3129 61.2478 58.8199C60.2334 61.3553 59.219 63.8906 58.2046 65.9189C57.6974 66.933 57.6974 67.4401 57.1902 68.4542C57.1902 68.9613 57.1903 68.9613 56.6831 69.4684C56.1759 70.9896 56.1759 72.0037 55.6687 73.5249C55.6687 74.032 55.1615 74.5391 55.1615 75.0461C54.6543 76.0603 54.6543 77.5815 54.6543 78.5956C54.6543 79.1027 54.6543 80.1168 54.1471 80.6239C54.1471 81.638 53.6399 82.6521 53.6399 83.6663C53.6399 84.1733 53.6399 85.1875 53.6399 85.6946C53.6399 86.7087 53.6399 88.2299 53.1327 89.244C53.1327 89.7511 53.1327 90.2582 53.1327 90.7652C53.1327 92.7935 53.1327 94.3147 53.1327 96.343C53.1327 99.8925 53.1327 102.935 53.6399 105.977C18.1362 125.753 -3.166 143.5 0.38437 153.135C3.93474 162.769 31.8305 162.262 71.3917 153.135C77.4781 161.248 84.5788 168.854 92.6939 174.939C107.91 186.094 125.662 192.686 145.949 193.7C147.471 193.7 149.5 193.7 151.021 193.7C153.05 193.7 154.572 193.7 156.601 193.7C157.108 193.7 157.615 193.7 158.122 193.7C159.137 193.7 160.658 193.7 161.672 193.193C162.18 193.193 163.194 193.193 163.701 193.193C164.716 193.193 166.237 192.686 167.252 192.686C167.759 192.686 168.773 192.686 169.28 192.179C170.295 192.179 171.816 191.672 172.831 191.672C173.338 191.672 173.845 191.165 174.352 191.165C175.874 190.658 176.888 190.658 178.41 190.151C178.917 190.151 178.917 190.151 179.424 189.644C182.975 188.629 186.018 187.108 189.568 186.094C190.075 186.094 190.075 185.587 190.583 185.587C192.104 185.08 193.119 184.573 194.64 183.559C195.147 183.559 195.147 183.052 195.655 183.052C196.669 182.545 198.191 181.53 199.205 181.023C199.712 181.023 199.712 180.516 200.219 180.516C201.741 180.009 202.755 178.995 204.277 177.981L204.784 177.474C209.349 174.432 213.406 170.882 217.464 167.333C218.478 166.318 219.493 165.304 220.507 164.29L221.014 163.783C221.014 163.783 221.014 163.783 221.522 163.276C222.536 162.262 223.55 161.248 224.057 160.234L224.565 159.727C224.565 159.727 224.565 159.727 225.072 159.219C226.086 158.205 226.593 157.191 227.608 156.177C227.608 156.177 227.608 156.177 227.608 155.67C239.781 140.458 247.389 121.189 248.403 99.8924C248.403 98.3712 248.403 96.8501 248.403 95.3289C248.403 93.3006 248.403 91.2723 248.403 89.244C248.403 88.737 248.403 88.2299 248.403 87.7228C248.403 87.2158 248.403 86.7087 248.403 86.2016C284.921 69.4684 303.687 52.228 302.166 41.5796ZM34.8737 140.965C32.8449 135.387 40.4528 127.274 55.1615 117.133C55.1615 117.133 55.1615 117.133 55.1615 116.626C55.6687 119.161 56.1759 121.696 56.6831 124.232C57.1903 126.26 57.6974 128.795 58.7118 130.824C60.2334 134.88 61.755 138.937 63.7838 142.993C64.291 143.5 64.291 144.007 64.7982 145.022C48.5679 147.557 36.9024 146.036 34.8737 140.965Z" fill="#6988F9"/>
</svg>
